<?xml version="1.0" encoding="UTF-8" standalone="no"?>
<!-- Created with Inkscape (http://www.inkscape.org/) -->

<svg
   xmlns:dc="http://purl.org/dc/elements/1.1/"
   xmlns:cc="http://creativecommons.org/ns#"
   xmlns:rdf="http://www.w3.org/1999/02/22-rdf-syntax-ns#"
   xmlns:svg="http://www.w3.org/2000/svg"
   xmlns="http://www.w3.org/2000/svg"
   xmlns:sodipodi="http://sodipodi.sourceforge.net/DTD/sodipodi-0.dtd"
   xmlns:inkscape="http://www.inkscape.org/namespaces/inkscape"
   width="1051.8392"
   height="503.53073"
   viewBox="0 0 1051.8394 503.53078"
   id="svg3828"
   version="1.1"
   inkscape:version="0.91 r13725"
   sodipodi:docname="welcome_portfolio2.svg">
  <defs
     id="defs3830">
    <linearGradient
       gradientTransform="translate(258.5699,382.35338)"
       gradientUnits="userSpaceOnUse"
       id="SVGID_1_"
       x1="129.86571"
       x2="129.86571"
       y1="97.658203"
       y2="0.00048828131">
      <stop
         offset="0"
         style="stop-color:#FFFFFF;stop-opacity:0"
         id="stop4056" />
      <stop
         offset="0.9305"
         style="stop-color:#FFFFFF;stop-opacity:0.2"
         id="stop4058" />
    </linearGradient>
    <clipPath
       clipPathUnits="userSpaceOnUse"
       id="clipPath6698">
      <path
         d="m 300.767,393.892 293.847,0 0,-204.894 -293.847,0 0,204.894 z"
         id="path6700"
         inkscape:connector-curvature="0" />
    </clipPath>
    <linearGradient
       id="SVGID_1_-5"
       gradientUnits="userSpaceOnUse"
       x1="300"
       y1="0"
       x2="300"
       y2="221.3999"
       gradientTransform="matrix(0.10027778,0,0,0.10027778,571.66667,390.8622)">
      <stop
         offset="0"
         style="stop-color:#FFDCCD"
         id="stop26" />
      <stop
         offset="1"
         style="stop-color:#FFB99D"
         id="stop28" />
    </linearGradient>
    <filter
       filterRes="100"
       id="shadow"
       x="0"
       y="0">
      <feGaussianBlur
         stdDeviation="2 2"
         id="feGaussianBlur3493" />
      <feOffset
         dx="2"
         dy="2"
         id="feOffset3495" />
    </filter>
    <filter
       filterRes="100"
       id="filter7588"
       x="0"
       y="0">
      <feGaussianBlur
         stdDeviation="2 2"
         id="feGaussianBlur7590" />
      <feOffset
         dx="2"
         dy="2"
         id="feOffset7592" />
    </filter>
    <linearGradient
       id="black"
       x1="274.9498"
       x2="285.17123"
       y1="-76.265457"
       y2="-66.044014"
       gradientTransform="scale(1.0312267,0.96971891)"
       gradientUnits="userSpaceOnUse">
      <stop
         offset="0%"
         style="stop-color:rgb(150,150,150);stop-opacity:2"
         id="stop6522" />
      <stop
         offset="100%"
         style="stop-color:rgb(0,0,0);stop-opacity:2"
         id="stop6524" />
    </linearGradient>
    <filter
       filterRes="100"
       id="filter7597"
       x="0"
       y="0">
      <feGaussianBlur
         stdDeviation="2 2"
         id="feGaussianBlur7599" />
      <feOffset
         dx="2"
         dy="2"
         id="feOffset7601" />
    </filter>
    <linearGradient
       id="lightgrey"
       x1="0"
       x2="1"
       y1="0"
       y2="1">
      <stop
         offset="0%"
         style="stop-color:rgb(255,255,255);stop-opacity:1"
         id="stop6512" />
      <stop
         offset="100%"
         style="stop-color:rgb(220,220,220);stop-opacity:1"
         id="stop6514" />
    </linearGradient>
    <filter
       filterRes="100"
       id="filter7607"
       x="0"
       y="0">
      <feGaussianBlur
         stdDeviation="2 2"
         id="feGaussianBlur7609" />
      <feOffset
         dx="2"
         dy="2"
         id="feOffset7611" />
    </filter>
    <filter
       filterRes="100"
       id="filter7613"
       x="0"
       y="0">
      <feGaussianBlur
         stdDeviation="2 2"
         id="feGaussianBlur7615" />
      <feOffset
         dx="2"
         dy="2"
         id="feOffset7617" />
    </filter>
    <filter
       filterRes="100"
       id="filter7625"
       x="0"
       y="0">
      <feGaussianBlur
         stdDeviation="2 2"
         id="feGaussianBlur7627" />
      <feOffset
         dx="2"
         dy="2"
         id="feOffset7629" />
    </filter>
    <filter
       filterRes="100"
       id="filter7631"
       x="0"
       y="0">
      <feGaussianBlur
         stdDeviation="2 2"
         id="feGaussianBlur7633" />
      <feOffset
         dx="2"
         dy="2"
         id="feOffset7635" />
    </filter>
    <filter
       filterRes="100"
       id="filter7643"
       x="0"
       y="0">
      <feGaussianBlur
         stdDeviation="2 2"
         id="feGaussianBlur7645" />
      <feOffset
         dx="2"
         dy="2"
         id="feOffset7647" />
    </filter>
    <filter
       filterRes="100"
       id="filter7649"
       x="0"
       y="0">
      <feGaussianBlur
         stdDeviation="2 2"
         id="feGaussianBlur7651" />
      <feOffset
         dx="2"
         dy="2"
         id="feOffset7653" />
    </filter>
    <filter
       filterRes="100"
       id="filter7655"
       x="0"
       y="0">
      <feGaussianBlur
         stdDeviation="2 2"
         id="feGaussianBlur7657" />
      <feOffset
         dx="2"
         dy="2"
         id="feOffset7659" />
    </filter>
    <filter
       filterRes="100"
       id="filter7661"
       x="0"
       y="0">
      <feGaussianBlur
         stdDeviation="2 2"
         id="feGaussianBlur7663" />
      <feOffset
         dx="2"
         dy="2"
         id="feOffset7665" />
    </filter>
    <filter
       filterRes="100"
       id="filter7667"
       x="0"
       y="0">
      <feGaussianBlur
         stdDeviation="2 2"
         id="feGaussianBlur7669" />
      <feOffset
         dx="2"
         dy="2"
         id="feOffset7671" />
    </filter>
  </defs>
  <sodipodi:namedview
     id="base"
     pagecolor="#ffffff"
     bordercolor="#666666"
     borderopacity="1.0"
     inkscape:pageopacity="0.0"
     inkscape:pageshadow="2"
     inkscape:zoom="1.1510553"
     inkscape:cx="418.46244"
     inkscape:cy="391.50918"
     inkscape:document-units="px"
     inkscape:current-layer="layer3"
     showgrid="false"
     showguides="true"
     inkscape:window-width="1280"
     inkscape:window-height="750"
     inkscape:window-x="-8"
     inkscape:window-y="-8"
     inkscape:window-maximized="1"
     fit-margin-top="0"
     fit-margin-left="0"
     fit-margin-right="0"
     fit-margin-bottom="0"
     showborder="true"
     units="px" />
  <metadata
     id="metadata3833">
    <rdf:RDF>
      <cc:Work
         rdf:about="">
        <dc:format>image/svg+xml</dc:format>
        <dc:type
           rdf:resource="http://purl.org/dc/dcmitype/StillImage" />
        <dc:title></dc:title>
      </cc:Work>
    </rdf:RDF>
  </metadata>
  <g
     inkscape:groupmode="layer"
     id="layer3"
     inkscape:label="bakground"
     style="display:inline"
     transform="translate(307.56885,-28.331469)">
    <rect
       style="fill:#afdde9"
       id="rect4231"
       width="1051.8394"
       height="503.53076"
       x="-307.56885"
       y="28.331469" />
  </g>
  <g
     inkscape:groupmode="layer"
     id="layer5"
     inkscape:label="Imac"
     sodipodi:insensitive="true"
     transform="translate(304.06885,274.53074)">
    <g
       transform="matrix(1.6369943,0,0,1.6369943,-221.19676,-277.92946)"
       id="g8808">
      <g
         id="g8810">
        <polygon
           style="fill:#ffffff"
           points="231.712,283.767 235.874,257.774 256.204,257.774 260.366,283.767 "
           id="polygon8812" />
        <polygon
           style="fill:#bebdbe"
           points="256.204,257.774 235.874,257.774 234.519,265.905 257.559,265.905 "
           id="polygon8814" />
        <path
           style="fill:#404041"
           inkscape:connector-curvature="0"
           d="m 314.012,171.607 -135.946,0 c -3.138,0 -5.681,2.545 -5.681,5.683 l 0,78.815 c 0,3.139 2.543,5.682 5.681,5.682 l 135.946,0 c 3.137,0 5.682,-2.543 5.682,-5.682 l 0,-78.815 c -0.001,-3.138 -2.545,-5.683 -5.682,-5.683 z"
           id="path8816" />
        <rect
           style="fill:#e5e6e6"
           x="178.88699"
           y="177.519"
           width="134.30299"
           height="70.593002"
           id="rect8818" />
        <rect
           style="fill:#ec565c"
           x="189.914"
           y="196.411"
           width="77.939003"
           height="46.735001"
           id="rect8820" />
        <g
           id="g8822">
          <polygon
             style="fill:#ffffff"
             points="227.618,224.39 227.618,215.166 235.605,219.778 "
             id="polygon8824" />
          <g
             id="g8826">
            <g
               id="g8828">
              <path
                 style="fill:#ffffff"
                 inkscape:connector-curvature="0"
                 d="m 230.424,211.477 c -4.578,0 -8.3,3.725 -8.3,8.303 0,4.576 3.722,8.299 8.3,8.299 4.578,0 8.301,-3.723 8.301,-8.299 0,-4.578 -3.724,-8.303 -8.301,-8.303 z m 0,15.848 c -4.162,0 -7.546,-3.385 -7.546,-7.545 0,-4.163 3.385,-7.547 7.546,-7.547 4.161,0 7.548,3.384 7.548,7.547 0,4.159 -3.387,7.545 -7.548,7.545 z"
                 id="path8830" />
            </g>
          </g>
        </g>
        <rect
           style="fill:#6d6e70"
           x="189.914"
           y="241.73801"
           width="77.939003"
           height="1.4069999"
           id="rect8832" />
        <rect
           style="fill:#ec565c"
           x="271.33499"
           y="196.411"
           width="9.6169996"
           height="9.6160002"
           id="rect8834" />
        <rect
           style="fill:#ec565c"
           x="271.33499"
           y="208.31799"
           width="9.6169996"
           height="9.6160002"
           id="rect8836" />
        <rect
           style="fill:#ec565c"
           x="271.33499"
           y="220.22501"
           width="9.6169996"
           height="9.618"
           id="rect8838" />
        <rect
           style="fill:#ec565c"
           x="271.33499"
           y="232.132"
           width="9.6169996"
           height="9.6169996"
           id="rect8840" />
        <rect
           style="fill:#6d6e70"
           x="283.52399"
           y="197.367"
           width="18.764"
           height="1.924"
           id="rect8842" />
        <rect
           style="fill:#6d6e70"
           x="283.52399"
           y="200.097"
           width="18.764"
           height="0.96200001"
           id="rect8844" />
        <rect
           style="fill:#6d6e70"
           x="283.52399"
           y="201.85699"
           width="18.764"
           height="0.963"
           id="rect8846" />
        <rect
           style="fill:#6d6e70"
           x="283.52399"
           y="209.713"
           width="18.764"
           height="1.924"
           id="rect8848" />
        <rect
           style="fill:#6d6e70"
           x="283.52399"
           y="212.44299"
           width="18.764"
           height="0.96200001"
           id="rect8850" />
        <rect
           style="fill:#6d6e70"
           x="283.52399"
           y="214.20399"
           width="18.764"
           height="0.96200001"
           id="rect8852" />
        <rect
           style="fill:#6d6e70"
           x="283.52399"
           y="221.664"
           width="18.764"
           height="1.924"
           id="rect8854" />
        <rect
           style="fill:#6d6e70"
           x="283.52399"
           y="224.394"
           width="18.764"
           height="0.96100003"
           id="rect8856" />
        <rect
           style="fill:#6d6e70"
           x="283.52399"
           y="226.15401"
           width="18.764"
           height="0.96200001"
           id="rect8858" />
        <rect
           style="fill:#6d6e70"
           x="283.52399"
           y="233.131"
           width="18.764"
           height="1.925"
           id="rect8860" />
        <rect
           style="fill:#6d6e70"
           x="283.52399"
           y="235.86"
           width="18.764"
           height="0.963"
           id="rect8862" />
        <rect
           style="fill:#6d6e70"
           x="283.52399"
           y="237.62199"
           width="18.764"
           height="0.96200001"
           id="rect8864" />
        <rect
           style="fill:#6d6e70"
           x="191.64"
           y="187.179"
           width="51.936001"
           height="2.8629999"
           id="rect8866" />
        <rect
           style="fill:#ec565c"
           x="178.88699"
           y="177.519"
           width="134.30299"
           height="1.724"
           id="rect8868" />
        <path
           style="fill:#ffffff"
           inkscape:connector-curvature="0"
           d="m 172.385,253.76 0,2.345 c 0,3.139 2.543,5.682 5.681,5.682 l 135.946,0 c 3.137,0 5.682,-2.543 5.682,-5.682 l 0,-2.345 -147.309,0 z"
           id="path8870" />
        <polygon
           style="fill:#bebdbe"
           points="231.712,283.767 260.366,283.767 260.05,281.245 232.028,281.245 "
           id="polygon8872" />
        <rect
           style="fill:#ffffff"
           x="223.52699"
           y="282.75299"
           width="45.022999"
           height="2.026"
           id="rect8874" />
        <rect
           style="fill:#bebdbe"
           x="223.52699"
           y="284.30099"
           width="45.022999"
           height="0.50599998"
           id="rect8876" />
        <circle
           style="fill:#404041"
           cx="246.039"
           cy="257.77399"
           r="2.5339999"
           id="circle8878" />
      </g>
    </g>
  </g>
  <g
     inkscape:groupmode="layer"
     id="layer7"
     inkscape:label="pens"
     sodipodi:insensitive="true"
     style="display:inline"
     transform="translate(304.06885,274.53074)">
    <g
       transform="matrix(1.2716632,0,0,1.5545436,-1202.0173,-229.48372)"
       id="g9396">
      <g
         id="g9398">
        <g
           id="g9400">
          <rect
             style="fill:#f29120"
             x="1018.545"
             y="241.562"
             transform="matrix(0.9808,-0.1952,0.1952,0.9808,-29.9518,203.9797)"
             width="2.6960001"
             height="24.771"
             id="rect9402" />
          <polygon
             style="fill:#d4b792"
             points="1016.966,239.523 1018.779,241.531 1016.136,242.097 "
             id="polygon9404" />
          <polygon
             style="fill:#404041"
             points="1016.966,239.523 1016.682,240.406 1017.499,240.113 "
             id="polygon9406" />
        </g>
        <g
           id="g9408">
          <rect
             style="fill:#fcf018"
             x="1028.069"
             y="241.82201"
             transform="matrix(0.949,0.3154,-0.3154,0.949,132.7271,-311.7147)"
             width="2.6949999"
             height="24.771"
             id="rect9410" />
          <polygon
             style="fill:#d4b792"
             points="1034.009,240.225 1034.59,242.865 1032.012,242.049 "
             id="polygon9412" />
          <polygon
             style="fill:#404041"
             points="1034.009,240.225 1033.325,240.851 1034.179,241 "
             id="polygon9414" />
        </g>
        <g
           id="g9416">
          <g
             id="g9418">
            <path
               style="fill:#404041"
               inkscape:connector-curvature="0"
               d="m 1033.395,252.655 -16.509,0 c -0.258,0 -0.465,0.208 -0.465,0.465 l 0,15.465 c 0,0.256 0.207,0.465 0.465,0.465 l 16.509,0 c 0.257,0 0.464,-0.208 0.464,-0.465 l 0,-15.465 c -10e-4,-0.256 -0.208,-0.465 -0.464,-0.465 z"
               id="path9420" />
          </g>
        </g>
      </g>
    </g>
  </g>
  <g
     inkscape:groupmode="layer"
     id="layer11"
     inkscape:label="glasses"
     sodipodi:insensitive="true"
     transform="translate(304.06885,274.53074)">
    <g
       id="g9928"
       transform="matrix(0.26414603,0,0,-0.26414605,579.0602,167.81616)">
      <path
         d="m 0,0 c 41.063,0.341 185.44,-13.467 207.542,-18.816 22.101,-5.35 24.207,-32.683 24.061,-43.816 -0.146,-11.133 -13.323,-14.085 -13.077,4.756 0.247,18.841 -1.261,29.07 -14.382,30.4 C 191.022,-26.146 13.773,-14.152 1.463,-13.654 -10.848,-13.157 -8.204,0.618 0,0"
         style="fill:#254659;fill-opacity:1;fill-rule:evenodd;stroke:none"
         id="path9930"
         inkscape:connector-curvature="0" />
    </g>
    <g
       id="g9932"
       transform="matrix(0.26414603,0,0,-0.26414605,641.2235,168.62973)">
      <path
         d="m 0,0 c -41.039,1.415 -185.729,-8.609 -207.963,-13.378 -22.234,-4.768 -25.055,-32.038 -25.2,-43.17 -0.146,-11.134 12.95,-14.43 13.196,4.411 0.246,18.841 2.023,29.028 15.174,30.013 13.151,0.986 190.653,8.337 202.973,8.512 C 10.499,-13.437 8.217,0.402 0,0"
         style="fill:#254659;fill-opacity:1;fill-rule:evenodd;stroke:none"
         id="path9934"
         inkscape:connector-curvature="0" />
    </g>
    <g
       id="g9936"
       transform="matrix(0.26414603,0,0,-0.26414605,593.3091,166.61395)">
      <path
         d="m 0,0 c -21.041,1.358 -48.831,-0.67 -53.943,-2.237 -6.576,-2.015 -6.771,-2.548 -7.128,-7.522 -0.358,-4.974 0.403,-9.259 4.255,-10.6 5.248,-1.825 5.209,-8.484 8.424,-27.642 2.93,-17.447 10.436,-31.317 43.486,-34.251 1.694,-0.15 3.326,-0.232 4.906,-0.259 l 0,4.857 c -15.147,0.095 -32.124,5.685 -38.019,16.631 -8.263,15.343 -9.961,46.148 0.98,52.414 4.737,2.713 20.595,4.391 37.039,3.448 L 0,0 Z M 63.394,-10.803 C 56.073,-10.868 25.99,-2.403 4.659,-0.368 3.154,-0.224 1.596,-0.103 0,0 L 0,-5.161 C 17.32,-6.153 35.293,-10.053 41.616,-18.718 51.974,-32.913 34.541,-66.953 18.335,-74.355 13.415,-76.603 6.897,-77.698 0,-77.654 l 0,-4.857 c 28.662,-0.485 38.864,18.49 42.277,24.83 6.422,11.927 4.713,28.507 21.11,28.292 16.396,-0.215 14.55,-16.455 20.658,-28.546 3.297,-6.528 12.981,-26.541 42.688,-26.213 l 0,4.84 c -7.356,0.001 -14.336,1.271 -19.487,3.788 -16.007,7.825 -32.543,42.31 -21.816,56.229 6.465,8.39 24.165,11.836 41.303,12.44 l 0,5.15 c -1.323,-0.056 -2.619,-0.127 -3.879,-0.214 -19.131,-1.321 -42.236,-8.734 -59.46,-8.888 m 63.339,-73.345 c 1.152,0.012 2.329,0.051 3.54,0.127 33.116,2.068 40.982,15.736 44.367,33.101 3.716,19.066 3.851,25.725 9.145,27.412 3.886,1.239 4.759,5.503 4.531,10.485 -0.227,4.981 -0.409,5.519 -6.928,7.706 -5.133,1.721 -33.494,4.524 -54.655,3.616 l 0,-5.15 c 16.698,0.589 32.863,-1.521 37.589,-4.394 10.775,-6.55 8.27,-37.299 -0.392,-52.422 -6.011,-10.492 -22.369,-15.644 -37.197,-15.641 l 0,-4.84 z"
         style="fill:#000000;fill-opacity:1;fill-rule:evenodd;stroke:none"
         id="path9938"
         inkscape:connector-curvature="0" />
    </g>
    <g
       id="g9940"
       transform="matrix(0.26414603,0,0,-0.26414605,636.71419,169.58417)">
      <path
         d="m 0,0 c -9.577,5.822 -66.128,8.517 -78.893,-8.046 -10.726,-13.919 5.81,-48.405 21.817,-56.229 15.532,-7.592 47.69,-3.846 56.683,11.853 C 8.27,-37.299 10.774,-6.55 0,0 m -201.361,2.636 c 9.726,5.569 66.328,6.782 78.655,-10.109 10.357,-14.195 -7.075,-48.235 -23.281,-55.638 -15.726,-7.183 -47.776,-2.597 -56.354,13.332 -8.263,15.344 -9.962,46.149 0.98,52.415"
         style="fill:#b0cad9;fill-opacity:1;fill-rule:evenodd;stroke:none"
         id="path9942"
         inkscape:connector-curvature="0" />
    </g>
    <g
       id="g9944"
       transform="matrix(0.26414603,0,0,-0.26414605,584.96349,168.41036)">
      <path
         d="m 0,0 c 17.355,3.789 62.378,2.927 73.211,-11.917 7.265,-9.956 0.857,-29.673 -9.208,-43.116 L 0,0 Z"
         style="fill:#d1e2eb;fill-opacity:1;fill-rule:evenodd;stroke:none"
         id="path9946"
         inkscape:connector-curvature="0" />
    </g>
    <g
       id="g9948"
       transform="matrix(0.26414603,0,0,-0.26414605,618.28818,169.98181)">
      <path
         d="m 0,0 65.189,-56.053 c 1.679,1.541 3.095,3.252 4.175,5.136 8.662,15.123 11.167,45.872 0.393,52.422 C 61.714,6.396 20.544,9.077 0,0"
         style="fill:#d1e2eb;fill-opacity:1;fill-rule:evenodd;stroke:none"
         id="path9950"
         inkscape:connector-curvature="0" />
    </g>
    <g
       id="g9952"
       transform="matrix(0.26414603,0,0,-0.26414605,587.07975,168.08815)">
      <path
         d="m 0,0 c 14.172,-0.796 30.884,-2 48.329,-3.43 4.775,-1.385 8.996,-3.161 12.258,-5.388 l 0.002,0 0.088,-0.061 0.011,-0.008 c 0.142,-0.098 0.283,-0.197 0.421,-0.297 l 0.051,-0.037 0.034,-0.025 0.084,-0.062 0.085,-0.062 0.028,-0.02 0.056,-0.042 0.083,-0.063 0.083,-0.063 0.005,-0.003 0.076,-0.059 0.082,-0.064 0.066,-0.05 0.016,-0.014 0.08,-0.063 0.081,-0.064 0.043,-0.034 0.037,-0.03 0.079,-0.064 0.079,-0.065 0.02,-0.017 0.058,-0.048 0.078,-0.065 0.076,-0.064 0,-10e-4 0.077,-0.066 0.077,-0.065 0.055,-0.048 0.021,-0.018 0.075,-0.066 0.074,-0.067 0.074,-0.067 0.074,-0.067 0.074,-0.066 0.014,-0.013 0.057,-0.054 0.072,-0.068 0.068,-0.063 0.005,-0.005 0.071,-0.068 0.07,-0.068 0.047,-0.045 0.024,-0.024 0.068,-0.068 0.069,-0.069 0.028,-0.028 0.041,-0.042 0.067,-0.069 0.067,-0.069 0.01,-0.009 0.058,-0.061 0.066,-0.071 0.057,-0.06 0.009,-0.009 0.064,-0.071 0.066,-0.07 0.038,-0.043 0.025,-0.029 0.063,-0.071 0.064,-0.071 0.02,-0.025 0.041,-0.048 0.063,-0.071 0.061,-0.073 0.003,-0.004 0.057,-0.068 0.061,-0.073 0.047,-0.058 0.012,-0.014 0.059,-0.073 0.09,-0.113 0.026,-0.034 0.114,-0.149 0.015,-0.019 0.042,-0.055 0.11,-0.149 0.057,-0.078 0.018,-0.026 0.039,-0.054 0.035,-0.051 0.021,-0.029 0.053,-0.076 0.002,-0.004 0.055,-0.08 0.015,-0.022 0.039,-0.058 0.031,-0.049 0.023,-0.033 0.048,-0.074 0.005,-0.007 0.052,-0.083 0.012,-0.019 0.04,-0.063 0.102,-0.166 0.05,-0.083 0.01,-0.017 0.04,-0.068 c 1.16,-1.974 1.867,-4.263 2.18,-6.766 C 33.822,-22.51 5.173,-23.8 0.183,-24.174 -12.968,-25.16 -14.744,-35.346 -14.99,-54.187 l -0.004,-0.168 c -3.414,6.877 -5.596,16.43 -6.062,25.502 3.76,6.354 9.457,11.577 18.07,13.424 1.296,0.279 3.008,0.575 5.091,0.885 -8.913,0.581 -16.431,1.062 -21.901,1.399 1.216,4.705 3.284,8.368 6.34,10.117 2.288,1.31 7.17,2.379 13.456,3.028 m 174.552,-2.287 c -14.2,-0.426 -30.957,-1.193 -48.444,-2.167 -4.797,-1.258 -9.052,-2.919 -12.365,-5.055 l -10e-4,0 -0.09,-0.058 -0.024,-0.016 -0.064,-0.042 -0.088,-0.059 -0.089,-0.059 -0.001,0 -0.087,-0.058 -0.087,-0.06 -0.065,-0.044 -0.022,-0.015 -0.173,-0.12 -0.039,-0.028 -0.046,-0.032 -0.085,-0.061 -0.085,-0.06 -0.015,-0.011 -0.068,-0.051 -0.084,-0.061 -0.076,-0.055 -0.007,-0.006 -0.082,-0.061 -0.082,-0.062 -0.054,-0.04 -0.028,-0.023 -0.081,-0.062 -0.081,-0.062 -0.029,-0.023 -0.051,-0.04 -0.08,-0.063 -0.019,-0.016 -0.13,-0.104 -0.007,-0.007 -0.078,-0.064 -0.066,-0.052 -0.013,-0.012 -0.077,-0.065 -0.077,-0.064 -0.041,-0.035 -0.034,-0.03 -0.075,-0.064 -0.075,-0.066 -0.076,-0.065 -0.073,-0.066 -0.073,-0.066 -0.001,0 -0.072,-0.066 -0.073,-0.067 -0.072,-0.066 -0.071,-0.067 -0.071,-0.067 -0.032,-0.031 -0.038,-0.037 -0.07,-0.067 -0.069,-0.068 -0.013,-0.013 -0.056,-0.056 -0.117,-0.117 -0.013,-0.013 -0.006,-0.007 -0.011,-0.012 -0.121,-0.126 -0.043,-0.044 -0.024,-0.025 -0.065,-0.07 -0.066,-0.07 -0.023,-0.025 -0.041,-0.044 -0.064,-0.071 -0.063,-0.071 -0.005,-0.006 -0.058,-0.065 -0.061,-0.071 -0.051,-0.058 -0.011,-0.013 -0.003,-0.004 -0.118,-0.139 -0.033,-0.04 -0.026,-0.033 -0.118,-0.144 -0.016,-0.021 -0.157,-0.199 -0.06,-0.078 -0.018,-0.025 -0.039,-0.053 -0.038,-0.05 -0.021,-0.028 -0.056,-0.074 -0.002,-0.004 -0.056,-0.08 -0.016,-0.021 -0.041,-0.058 -0.033,-0.047 -0.023,-0.032 -0.05,-0.073 -0.005,-0.008 -0.055,-0.081 -0.012,-0.017 -0.042,-0.064 -0.029,-0.043 -0.024,-0.038 -0.046,-0.07 -0.007,-0.012 -0.053,-0.083 c -1.243,-1.96 -2.024,-4.257 -2.407,-6.785 34.283,-2.366 62.923,-4.408 67.903,-4.913 13.121,-1.329 14.63,-11.558 14.383,-30.399 l 0,-0.042 c 3.569,6.804 5.979,16.28 6.668,25.312 -3.594,6.403 -9.138,11.728 -17.652,13.789 -1.288,0.312 -2.993,0.651 -5.066,1.016 8.89,0.347 16.392,0.63 21.863,0.824 -1.093,4.737 -3.065,8.454 -6.074,10.283 -2.25,1.368 -7.094,2.563 -13.353,3.377"
         style="fill:#617f91;fill-opacity:1;fill-rule:evenodd;stroke:none"
         id="path9954"
         inkscape:connector-curvature="0" />
    </g>
    <g
       id="g9956"
       transform="matrix(0.26414603,0,0,-0.26414605,584.96323,168.41022)">
      <path
         d="m 0,0 25.649,-22.054 c 12.58,0.588 30.582,1.379 50.49,2.23 -0.314,2.504 -1.02,4.792 -2.18,6.766 l -0.04,0.068 -0.01,0.017 -0.051,0.083 -0.101,0.166 -0.04,0.063 -0.012,0.019 -0.053,0.083 -0.005,0.007 -0.047,0.074 -0.023,0.033 -0.031,0.049 -0.039,0.058 -0.016,0.023 -0.054,0.08 -0.002,0.004 -0.053,0.075 -0.022,0.03 -0.035,0.05 -0.038,0.055 -0.018,0.025 -0.057,0.079 -0.11,0.148 -0.042,0.055 -0.015,0.02 -0.114,0.148 -0.027,0.034 -0.09,0.113 -0.058,0.073 -0.012,0.014 -0.048,0.059 -0.06,0.072 -0.057,0.068 -0.004,0.005 -0.06,0.072 -0.063,0.072 -0.041,0.047 -0.02,0.025 -0.064,0.071 -0.063,0.071 -0.026,0.029 -0.038,0.043 -0.065,0.071 -0.065,0.07 -0.008,0.009 -0.057,0.061 -0.067,0.07 -0.057,0.061 -0.01,0.009 -0.067,0.07 -0.068,0.069 -0.041,0.042 -0.027,0.027 -0.069,0.069 -0.069,0.068 -0.023,0.024 -0.047,0.045 -0.07,0.068 -0.072,0.069 -0.005,0.005 -0.067,0.063 -0.072,0.067 -0.058,0.054 -0.013,0.013 -0.075,0.067 -0.073,0.067 -0.074,0.066 -0.074,0.067 -0.076,0.066 -0.02,0.018 -0.056,0.048 -0.076,0.066 -0.077,0.065 0,0.001 -0.076,0.064 -0.078,0.065 -0.058,0.048 -0.02,0.017 -0.08,0.065 -0.079,0.064 -0.037,0.031 -0.043,0.034 -0.08,0.064 -0.08,0.063 -0.017,0.013 -0.065,0.051 -0.082,0.063 -0.076,0.059 -0.005,0.004 -0.083,0.063 -0.083,0.062 -0.057,0.043 -0.027,0.019 -0.085,0.063 -0.084,0.062 -0.034,0.025 -0.051,0.036 c -0.139,0.1 -0.279,0.199 -0.422,0.298 l -0.011,0.007 -0.087,0.061 -0.002,0 C 65.338,-5.372 61.117,-3.596 56.342,-2.21 38.896,-0.781 22.185,0.423 8.013,1.219 4.967,0.905 2.25,0.491 0,0"
         style="fill:#8097a6;fill-opacity:1;fill-rule:evenodd;stroke:none"
         id="path9958"
         inkscape:connector-curvature="0" />
    </g>
    <g
       id="g9960"
       transform="matrix(0.26414603,0,0,-0.26414605,633.18691,168.6923)">
      <path
         d="m 0,0 c -14.2,-0.426 -30.957,-1.193 -48.443,-2.167 -2.878,-0.754 -5.561,-1.654 -7.961,-2.714 l 19.264,-16.564 c 19.117,-1.351 33.039,-2.377 36.371,-2.715 13.122,-1.329 14.63,-11.558 14.383,-30.399 l 0,-0.042 c 3.57,6.804 5.979,16.28 6.668,25.312 -3.594,6.403 -9.137,11.728 -17.652,13.789 -1.288,0.312 -2.992,0.651 -5.066,1.017 8.89,0.346 16.392,0.629 21.863,0.823 -1.093,4.737 -3.065,8.454 -6.073,10.284 C 11.104,-2.009 6.259,-0.813 0,0"
         style="fill:#8097a6;fill-opacity:1;fill-rule:evenodd;stroke:none"
         id="path9962"
         inkscape:connector-curvature="0" />
    </g>
  </g>
  <g
     inkscape:groupmode="layer"
     id="layer8"
     inkscape:label="lamp"
     transform="translate(307.56885,-28.331469)"
     sodipodi:insensitive="true">
    <g
       style="display:inline"
       id="g6658"
       transform="matrix(0.49994679,0,0,-0.49994679,-120.02693,484.75523)">
      <path
         d="m 0,0 14.441,-2.989 11.97,57.83 0,27.713 L 8.937,-1.874 5.496,-1.161 26.411,99.89 l 0,27.713 L 0,0 Z m 26.411,54.841 26.42,127.647 -14.442,2.99 -11.978,-57.875 0,-27.713 17.474,84.426 3.441,-0.712 -20.915,-101.05 0,-27.713 z"
         style="fill:#fffdfa;fill-opacity:1;fill-rule:evenodd;stroke:none"
         id="path6660"
         inkscape:connector-curvature="0" />
    </g>
    <g
       style="display:inline"
       id="g6662"
       transform="matrix(0.49994679,0,0,-0.49994679,-42.923132,361.30351)">
      <path
         d="M 0,0 -96.956,-38.916 -91.462,-52.603 0,-15.892 0,-9.84 -93.555,-47.39 -94.863,-44.129 0,-6.053 0,0 Z M 96.955,23.024 91.461,36.71 0,0 0,-6.053 93.554,31.497 94.863,28.236 0,-9.84 0,-15.892 96.955,23.024 Z"
         style="fill:#fffdfa;fill-opacity:1;fill-rule:evenodd;stroke:none"
         id="path6664"
         inkscape:connector-curvature="0" />
    </g>
    <g
       style="display:inline"
       id="g6666"
       transform="matrix(0.49994679,0,0,-0.49994679,15.71657,365.61555)">
      <path
         d="m 0,0 c 7.976,0 14.482,6.506 14.482,14.481 0,7.977 -6.506,14.482 -14.482,14.482 -7.976,0 -14.481,-6.505 -14.481,-14.482 C -14.481,6.506 -7.976,0 0,0"
         style="fill:#fcb200;fill-opacity:1;fill-rule:evenodd;stroke:none"
         id="path6668"
         inkscape:connector-curvature="0" />
    </g>
    <g
       style="display:inline"
       id="g6670"
       transform="matrix(0.49994679,0,0,-0.49994679,-6.1729118,324.42392)">
      <path
         d="M 0,0 C 2.535,0 4.603,2.067 4.603,4.603 4.603,7.138 2.535,9.206 0,9.206 -2.536,9.206 -4.604,7.138 -4.604,4.603 -4.604,2.067 -2.536,0 0,0"
         style="fill:#fffdfa;fill-opacity:1;fill-rule:evenodd;stroke:none"
         id="path6672"
         inkscape:connector-curvature="0" />
    </g>
    <g
       style="display:inline"
       id="g6674"
       transform="matrix(0.49994679,0,0,-0.49994679,-6.1726618,322.12312)">
      <path
         d="M 0,0 C 4.623,2.792 9.514,4.865 14.576,6.261 L 33.811,-17.314 C 53.024,-16.601 73.848,-28.224 86.75,-48.709 72.774,-55.755 58.35,-63.719 43.783,-72.514 29.217,-81.309 15.453,-90.366 2.709,-99.452 -9.411,-78.495 -10,-54.653 -0.422,-37.983 L -12.328,-9.982 C -8.735,-6.154 -4.623,-2.791 0,0"
         style="fill:#c6232f;fill-opacity:1;fill-rule:evenodd;stroke:none"
         id="path6676"
         inkscape:connector-curvature="0" />
    </g>
    <g
       style="display:inline"
       id="g6678"
       transform="matrix(0.49994679,0,0,-0.49994679,-101.48016,381.12272)">
      <path
         d="m 0,0 c 6,6.124 15.828,6.225 21.952,0.225 6.124,-6 6.225,-15.829 0.225,-21.953 C 16.176,-27.852 6.348,-27.952 0.224,-21.952 -5.899,-15.952 -6,-6.124 0,0"
         style="fill:#c6232f;fill-opacity:1;fill-rule:evenodd;stroke:none"
         id="path6680"
         inkscape:connector-curvature="0" />
    </g>
    <g
       style="display:inline"
       id="g6682"
       transform="matrix(0.49994679,0,0,-0.49994679,-7.4232918,338.66705)">
      <path
         d="m 0,0 c 6.146,9.018 22.018,18.082 33.095,19.718 l 3.216,-3.941 C 25.569,15.195 6.332,4.24 2.08,-4.892 L 0,0 Z"
         style="fill:#fffdfa;fill-opacity:1;fill-rule:nonzero;stroke:none"
         id="path6684"
         inkscape:connector-curvature="0" />
    </g>
    <g
       style="display:inline"
       id="g6686"
       transform="matrix(0.49994679,0,0,-0.49994679,-95.936342,392.28803)">
      <path
         d="m 0,0 c 6.318,0 11.471,5.152 11.471,11.471 0,6.317 -5.153,11.47 -11.471,11.47 -6.318,0 -11.471,-5.153 -11.471,-11.47 C -11.471,5.152 -6.318,0 0,0"
         style="fill:#b7d5eb;fill-opacity:1;fill-rule:evenodd;stroke:none"
         id="path6688"
         inkscape:connector-curvature="0" />
    </g>
    <g
       style="display:inline"
       id="g6690"
       transform="matrix(0.49994679,0,0,-0.49994679,-114.36111,470.95151)">
      <path
         d="m 0,0 c 20.407,0 36.951,-16.544 36.951,-36.95 l 0,-10e-4 -73.901,0 0,10e-4 C -36.95,-16.544 -20.407,0 0,0"
         style="fill:#c6232f;fill-opacity:1;fill-rule:evenodd;stroke:none"
         id="path6692"
         inkscape:connector-curvature="0" />
    </g>
    <g
       transform="matrix(0.70394751,0,0,-0.70394751,-218.02795,623.29026)"
       style="display:inline"
       id="g6694">
      <g
         id="g6696" />
      <g
         id="g6702">
        <g
           clip-path="url(#clipPath6698)"
           id="g6704"
           style="opacity:0.30000299">
          <g
             transform="translate(300.7666,342.918)"
             id="g6706">
            <path
               d="M 1.2341376,16.884377 62.56698,51.573218 313.94565,-152.02456 24.951189,-228.64201 l -2.129498,2.84391 z"
               style="fill:#b3b3b3;fill-opacity:1;fill-rule:evenodd;stroke:none"
               id="path6708"
               inkscape:connector-curvature="0"
               sodipodi:nodetypes="cccccc" />
          </g>
        </g>
      </g>
    </g>
  </g>
  <g
     inkscape:groupmode="layer"
     id="layer6"
     inkscape:label="headphone"
     style="display:inline"
     transform="translate(307.56885,-28.331469)"
     sodipodi:insensitive="true">
    <g
       transform="matrix(0.86158035,0,0,-0.86158035,-17.447782,477.93654)"
       id="g250">
      <path
         inkscape:connector-curvature="0"
         id="path252"
         style="fill:#ffffff;fill-opacity:1;fill-rule:nonzero;stroke:none"
         d="m 0,0 c -7.127,20.458 -2.641,35.482 -2.446,36.112 l 2.197,-0.678 C -0.295,35.287 -4.691,20.458 2.172,0.757 Z" />
    </g>
    <g
       transform="matrix(0.86158035,0,0,-0.86158035,-8.701552,481.67106)"
       id="g254">
      <path
         inkscape:connector-curvature="0"
         id="path256"
         style="fill:#453f41;fill-opacity:1;fill-rule:nonzero;stroke:none"
         d="m 0,0 c 0.578,-1.752 -0.373,-3.643 -2.126,-4.222 l -2.361,-0.779 c -1.753,-0.58 -3.645,0.372 -4.222,2.125 l -3.107,9.408 c -0.578,1.753 0.373,3.643 2.126,4.221 l 2.362,0.78 c 1.753,0.58 3.642,-0.372 4.222,-2.125 z" />
    </g>
    <g
       transform="matrix(0.86158035,0,0,-0.86158035,0.33833902,481.66305)"
       id="g258">
      <path
         inkscape:connector-curvature="0"
         id="path260"
         style="fill:#60aacf;fill-opacity:1;fill-rule:nonzero;stroke:none"
         d="m 0,0 c 0.962,-2.913 -0.619,-6.055 -3.534,-7.017 l -3.925,-1.297 c -2.914,-0.962 -6.056,0.621 -7.02,3.533 l -5.163,15.638 c -0.962,2.914 0.621,6.057 3.535,7.019 l 3.924,1.296 c 2.913,0.962 6.056,-0.619 7.019,-3.533 z" />
    </g>
    <g
       transform="matrix(0.86158035,0,0,-0.86158035,3.1039092,485.04036)"
       id="g262">
      <path
         inkscape:connector-curvature="0"
         id="path264"
         style="fill:#ffffff;fill-opacity:1;fill-rule:nonzero;stroke:none"
         d="m 0,0 c 0.688,-2.081 -0.443,-4.325 -2.524,-5.013 l -0.879,-0.289 c -2.08,-0.688 -4.326,0.442 -5.013,2.523 l -8.129,24.619 c -0.687,2.081 0.441,4.326 2.523,5.014 l 0.878,0.29 c 2.081,0.687 4.325,-0.443 5.013,-2.524 z" />
    </g>
    <g
       transform="matrix(0.86158035,0,0,-0.86158035,36.60208,478.1204)"
       id="g266">
      <path
         inkscape:connector-curvature="0"
         id="path268"
         style="fill:#ffffff;fill-opacity:1;fill-rule:nonzero;stroke:none"
         d="M 0,0 -2.163,0.771 C 4.85,20.474 0.538,35.282 0.493,35.43 l 2.202,0.664 C 2.885,35.463 7.269,20.407 0,0" />
    </g>
    <g
       transform="matrix(0.86158035,0,0,-0.86158035,27.83232,481.79556)"
       id="g270">
      <path
         inkscape:connector-curvature="0"
         id="path272"
         style="fill:#453f41;fill-opacity:1;fill-rule:nonzero;stroke:none"
         d="m 0,0 c -0.591,-1.75 0.348,-3.646 2.098,-4.236 l 2.354,-0.797 c 1.752,-0.591 3.647,0.348 4.238,2.097 l 3.17,9.386 c 0.591,1.75 -0.346,3.647 -2.096,4.237 L 7.408,11.482 C 5.659,12.073 3.762,11.135 3.171,9.386 Z" />
    </g>
    <g
       transform="matrix(0.86158035,0,0,-0.86158035,18.79243,481.72612)"
       id="g274">
      <path
         inkscape:connector-curvature="0"
         id="path276"
         style="fill:#60aacf;fill-opacity:1;fill-rule:nonzero;stroke:none"
         d="m 0,0 c -0.982,-2.907 0.578,-6.059 3.485,-7.041 l 3.918,-1.323 c 2.908,-0.982 6.06,0.578 7.042,3.486 l 5.27,15.602 c 0.983,2.906 -0.578,6.06 -3.485,7.041 l -3.917,1.323 C 9.406,20.07 6.254,18.51 5.272,15.603 Z" />
    </g>
    <g
       transform="matrix(0.86158035,0,0,-0.86158035,16.00409,485.08413)"
       id="g278">
      <path
         inkscape:connector-curvature="0"
         id="path280"
         style="fill:#ffffff;fill-opacity:1;fill-rule:nonzero;stroke:none"
         d="m 0,0 c -0.7,-2.077 0.413,-4.328 2.49,-5.029 l 0.876,-0.297 c 2.078,-0.701 4.329,0.412 5.031,2.49 l 8.298,24.563 c 0.701,2.076 -0.414,4.328 -2.49,5.029 l -0.877,0.297 C 11.252,27.754 9,26.639 8.299,24.563 Z" />
    </g>
    <g
       transform="matrix(0.86158035,0,0,-0.86158035,-17.410752,448.52373)"
       id="g282">
      <path
         inkscape:connector-curvature="0"
         id="path284"
         style="fill:#ffffff;fill-opacity:1;fill-rule:nonzero;stroke:none"
         d="M 0,0 C -0.478,0.002 -0.963,0.104 -1.426,0.315 -3.156,1.111 -3.915,3.158 -3.12,4.888 1.644,15.265 13.347,26.331 31.91,26.267 46.377,26.218 59.026,18.904 66.616,6.202 67.593,4.567 67.06,2.448 65.425,1.472 63.789,0.496 61.671,1.028 60.694,2.664 57.705,7.667 48.914,19.311 31.888,19.369 16.596,19.421 7.016,10.436 3.147,2.011 2.564,0.742 1.312,-0.005 0,0" />
    </g>
    <g
       transform="matrix(0.86158035,0,0,-0.86158035,-18.639182,448.252)"
       id="g286">
      <path
         inkscape:connector-curvature="0"
         id="path288"
         style="fill:#f1f2f2;fill-opacity:1;fill-rule:nonzero;stroke:none"
         d="M 0,0 C 0.463,-0.212 0.948,-0.313 1.426,-0.315 2.737,-0.32 3.99,0.427 4.573,1.696 8.441,10.121 18.021,19.106 33.313,19.054 50.34,18.995 59.131,7.351 62.12,2.348 63.097,0.713 65.215,0.18 66.851,1.156 67.201,1.366 67.49,1.635 67.735,1.934 67.654,2.203 67.552,2.467 67.402,2.719 59.813,15.421 47.163,22.735 32.696,22.785 14.665,22.846 3.108,12.409 -1.905,2.302 -1.66,1.32 -0.989,0.455 0,0" />
    </g>
  </g>
  <g
     inkscape:groupmode="layer"
     id="layer9"
     inkscape:label="mail"
     sodipodi:insensitive="true"
     transform="translate(307.56885,-28.331469)">
    <path
       inkscape:connector-curvature="0"
       style="display:inline;fill:#ff6521"
       d="m 572.0397,426.73788 24.01062,-14.44241 -24.06918,-21.1568 c -0.19303,0.18311 -0.31447,0.44092 -0.31447,0.72631 l 0,34.09444 c 0,0.31336 0.14601,0.59426 0.37303,0.77846 z"
       id="path13" />
    <path
       inkscape:connector-curvature="0"
       style="display:inline;fill:#ff6521"
       d="m 631.51876,391.13867 -24.06907,21.15669 24.01061,14.44252 c 0.22703,-0.1842 0.37303,-0.4651 0.37303,-0.77846 l 0,-34.09444 c 0,-0.28539 -0.12144,-0.5432 -0.31457,-0.72631 z"
       id="path15" />
    <path
       inkscape:connector-curvature="0"
       style="display:inline;fill:#c43d17"
       d="m 607.44969,412.29536 -5.69969,5.01009 -5.69968,-5.00998 -24.01062,14.44241 c 0.17248,0.13988 0.39159,0.22432 0.62975,0.22432 l 58.16112,0 c 0.23805,0 0.45735,-0.0844 0.62973,-0.22432 l -24.01061,-14.44252 z"
       id="path17" />
    <path
       inkscape:connector-curvature="0"
       style="display:inline;fill:#e04714"
       d="m 604.88298,410.75159 2.56671,1.54388 24.06907,-21.1568 c -0.008,-0.008 -0.0178,-0.0164 -0.0269,-0.0245 l -26.6089,19.63739 z"
       id="path19" />
    <path
       inkscape:connector-curvature="0"
       style="display:inline;fill:#e04714"
       d="m 572.00811,391.1142 c -0.009,0.008 -0.0182,0.0162 -0.027,0.0245 l 24.06917,21.1567 2.56671,-1.54388 -26.60891,-19.63729 z"
       id="path21" />
    <polygon
       style="display:inline;fill:#a03016"
       points="300,221.4 268.757,198.343 243.161,213.738 300,263.7 356.839,213.738 331.243,198.343 "
       id="polygon23"
       transform="matrix(0.10027778,0,0,0.10027778,571.66667,390.8622)" />
    <path
       inkscape:connector-curvature="0"
       style="display:inline;fill:url(#SVGID_1_-5)"
       d="m 630.83057,390.8622 -58.16112,0 c -0.25311,0 -0.48445,0.0957 -0.66134,0.252 l 29.74189,21.9495 29.74199,-21.9495 c -0.177,-0.15624 -0.40833,-0.252 -0.66142,-0.252 z"
       id="path30" />
  </g>
  <g
     inkscape:groupmode="layer"
     id="layer10"
     inkscape:label="diagramme"
     style="display:inline;opacity:1"
     transform="translate(307.56885,-28.331469)"
     sodipodi:insensitive="true">
    <g
       transform="translate(118.93493,172.83856)"
       id="g8722">
      <rect
         style="fill:#ffffff"
         x="333.871"
         y="183.54401"
         width="64.212997"
         height="51.893002"
         id="rect8724" />
      <circle
         style="fill:#6d6e70"
         cx="352.94699"
         cy="224.22"
         r="0.78200001"
         id="circle8726" />
      <circle
         style="fill:#6d6e70"
         cx="355.604"
         cy="224.22"
         r="0.78200001"
         id="circle8728" />
      <circle
         style="fill:#6d6e70"
         cx="357.89499"
         cy="224.22"
         r="0.78200001"
         id="circle8730" />
      <path
         style="fill:#6d6e70"
         inkscape:connector-curvature="0"
         d="m 387.019,194.788 -16.658,0 0,16.028 16.658,0 0,-16.028 z m -0.916,15.113 -14.826,0 0,-14.197 14.826,0 0,14.197 z m 0.916,2.062 -16.658,0 0,16.027 16.658,0 0,-16.027 z m -0.916,15.112 -14.826,0 0,-14.198 14.826,0 0,14.198 z m -44.096,-38.301 0,41.433 47.94,0 0,-41.433 -47.94,0 z m 47.026,40.518 -46.11,0 0,-36.053 46.11,0 0,36.053 z m 0,-36.969 -46.11,0 0,-2.633 46.11,0 0,2.633 z m -22.598,8.407 -21.708,0 0,17.323 21.708,0 0,-17.323 z m -0.916,16.408 -19.877,0 0,-15.493 19.877,0 0,15.493 z m -9.156,-4.821 c 1.558,0 2.826,-1.268 2.826,-2.827 0,-1.56 -1.268,-2.827 -2.826,-2.827 -1.559,0 -2.827,1.268 -2.827,2.827 0,1.56 1.268,2.827 2.827,2.827 z m 0,-5.396 c 1.417,0 2.569,1.152 2.569,2.57 0,1.417 -1.152,2.569 -2.569,2.569 -1.417,0 -2.571,-1.152 -2.571,-2.569 0,-1.418 1.154,-2.57 2.571,-2.57 z m 9.614,-11.675 -20.792,0 0,0.888 20.792,0 0,-0.888 z m -10.57,12.673 0,3.142 2.719,-1.57 -2.719,-1.572 z"
         id="path8732" />
      <polygon
         style="fill:#1ca3c8"
         points="333.529,193.473 333.645,192.223 332.442,192.547 332.501,191.251 331.349,191.615 340.181,181.236 339.908,182.393 341.311,182.198 341.184,183.478 342.363,183.093 "
         id="polygon8734" />
      <polygon
         style="fill:#1ca3c8"
         points="390.254,182.371 391.454,182.484 391.142,181.329 392.388,181.388 392.035,180.279 402.014,188.773 400.904,188.51 401.093,189.856 399.862,189.732 400.234,190.865 "
         id="polygon8736" />
    </g>
  </g>
  <g
     inkscape:groupmode="layer"
     id="layer4"
     inkscape:label="clock"
     style="display:inline"
     transform="translate(307.56885,-28.331469)"
     sodipodi:insensitive="true">
    <g
       transform="matrix(0.54784764,0,0,-0.54784764,376.14382,283.63048)"
       id="g200">
      <path
         id="path202"
         style="fill:#0a646c;fill-opacity:1;fill-rule:nonzero;stroke:none"
         d="m 0,0 c 0,30.12 -24.418,54.536 -54.536,54.536 -30.121,0 -54.537,-24.416 -54.537,-54.536 0,-30.12 24.416,-54.536 54.537,-54.536 C -24.418,-54.536 0,-30.12 0,0"
         inkscape:connector-curvature="0" />
    </g>
    <g
       transform="matrix(0.54784764,0,0,-0.54784764,372.78019,283.63048)"
       id="g204"
       inkscape:transform-center-x="13.671067"
       inkscape:transform-center-y="-28.950484">
      <path
         id="path206"
         style="fill:#fffdfe;fill-opacity:1;fill-rule:nonzero;stroke:none"
         d="m 0,0 c 0,26.73 -21.667,48.396 -48.396,48.396 -26.73,0 -48.398,-21.666 -48.398,-48.396 0,-26.73 21.668,-48.396 48.398,-48.396 C -21.667,-48.396 0,-26.73 0,0"
         inkscape:connector-curvature="0" />
    </g>
    <path
       id="path208"
       style="fill:#0a646c;fill-opacity:1;fill-rule:nonzero;stroke:none"
       d="m 325.05516,284.18709 -3.02959,0 0,-1.11377 3.02959,0 z"
       inkscape:connector-curvature="0" />
    <path
       id="path210"
       style="fill:#0a646c;fill-opacity:1;fill-rule:nonzero;stroke:none"
       d="m 370.29149,284.18709 -3.02959,0 0,-1.11377 3.02959,0 z"
       inkscape:connector-curvature="0" />
    <path
       id="path212"
       style="fill:#0a646c;fill-opacity:1;fill-rule:nonzero;stroke:none"
       d="m 345.60054,259.49725 1.11433,0 0,3.03013 -1.11433,0 z"
       inkscape:connector-curvature="0" />
    <path
       id="path214"
       style="fill:#0a646c;fill-opacity:1;fill-rule:nonzero;stroke:none"
       d="m 345.60054,304.73302 1.11433,0 0,3.03015 -1.11433,0 z"
       inkscape:connector-curvature="0" />
    <g
       transform="matrix(0.54784764,0,0,-0.54784764,346.26629,283.63048)"
       id="g216">
      <path
         id="path218"
         style="fill:#ffffff;fill-opacity:1;fill-rule:nonzero;stroke:#ed1c24;stroke-width:0.79000002;stroke-linecap:butt;stroke-linejoin:miter;stroke-miterlimit:10;stroke-dasharray:none;stroke-opacity:1"
         d="M 0,0 -34.768,0"
         inkscape:connector-curvature="0" />
    </g>
    <g
       transform="matrix(0.54784764,0,0,-0.54784764,346.26629,286.57647)"
       id="g220">
      <path
         id="path222"
         style="fill:#ffffff;fill-opacity:1;fill-rule:nonzero;stroke:#231f20;stroke-width:0.847;stroke-linecap:butt;stroke-linejoin:miter;stroke-miterlimit:10;stroke-dasharray:none;stroke-opacity:1"
         d="M 0,0 0,41.746"
         inkscape:connector-curvature="0" />
    </g>
    <g
       transform="matrix(0.54784764,0,0,-0.54784764,347.41123,284.82703)"
       id="g224">
      <path
         id="path226"
         style="fill:#ffffff;fill-opacity:1;fill-rule:nonzero;stroke:#231f20;stroke-width:0.847;stroke-linecap:butt;stroke-linejoin:miter;stroke-miterlimit:10;stroke-dasharray:none;stroke-opacity:1"
         d="M 0,0 -18.173,19.08"
         inkscape:connector-curvature="0" />
    </g>
  </g>
  <g
     inkscape:label="coffee"
     inkscape:groupmode="layer"
     id="layer1"
     style="display:inline"
     sodipodi:insensitive="true"
     transform="translate(307.56885,-28.331469)">
    <g
       transform="matrix(0.95221244,0,0,-0.95221244,491.15031,457.75407)"
       id="g906">
      <path
         inkscape:connector-curvature="0"
         id="path908"
         style="fill:#ffffff;fill-opacity:1;fill-rule:nonzero;stroke:none"
         d="m 0,0 0,-13.043 c 0,-10.192 8.264,-18.456 18.457,-18.456 l 5.906,0 c 10.193,0 18.456,8.264 18.456,18.456 l 0,13.043 z" />
    </g>
    <g
       transform="matrix(0.95221244,0,0,-0.95221244,491.71935,492.90223)"
       id="g910">
      <path
         inkscape:connector-curvature="0"
         id="path912"
         style="fill:#9e4a25;fill-opacity:1;fill-rule:nonzero;stroke:none"
         d="m 0,0 41.623,0 c 1.467,0.803 3.429,2.706 5.07,5.413 l -51.763,0 C -3.797,3.199 -2.32,1.66 0,0" />
    </g>
    <g
       transform="matrix(0.95221244,0,0,-0.95221244,530.9665,474.15744)"
       id="g914">
      <path
         inkscape:connector-curvature="0"
         id="path916"
         style="fill:#e6e7e8;fill-opacity:1;fill-rule:nonzero;stroke:none"
         d="m 0,0 c -0.147,0 -0.293,0.003 -0.439,0.01 l 0.121,2.95 C 3.208,2.835 5.598,4.943 6.571,6.812 7.338,8.279 7.37,9.715 6.659,10.648 4.7,13.223 0.636,10.451 0.464,10.332 l -1.691,2.421 C 1.029,14.331 6.07,16.298 9.009,12.438 10.431,10.569 10.499,7.956 9.19,5.446 7.447,2.104 3.874,0.001 0,0" />
    </g>
    <g
       transform="matrix(0.95221244,0,0,-0.95221244,511.53727,487.7478)"
       id="g918">
      <path
         inkscape:connector-curvature="0"
         id="path920"
         style="fill:#e6e7e8;fill-opacity:1;fill-rule:nonzero;stroke:none"
         d="m 0,0 2.953,0 c 10.193,0 18.456,8.264 18.456,18.456 l 0,13.043 -21.409,0 z" />
    </g>
    <g
       transform="matrix(0.95221244,0,0,-0.95221244,511.53727,492.90223)"
       id="g922">
      <path
         inkscape:connector-curvature="0"
         id="path924"
         style="fill:#893d22;fill-opacity:1;fill-rule:nonzero;stroke:none"
         d="m 0,0 20.811,0 c 1.466,0.803 3.428,2.706 5.07,5.413 L 0,5.413 Z" />
    </g>
  </g>
  <g
     inkscape:groupmode="layer"
     id="layer2"
     inkscape:label="mac"
     style="display:inline"
     transform="translate(307.56885,-28.331469)"
     sodipodi:insensitive="true">
    <path
       inkscape:connector-curvature="0"
       style="fill:#bcbec0"
       d="m 455.21591,490.06738 c 0,0.144 -0.309,0.421 -0.816,0.774 l -194.85301,0 c -0.309,-0.236 -0.482,-0.446 -0.477,-0.619 l 0,-6.033 195.99201,-0.155 c 0,0 0.154,5.451 0.154,6.033 z"
       id="path4025" />
    <path
       inkscape:connector-curvature="0"
       style="fill:#808285"
       d="m 336.8509,484.03738 43.23801,0 -1.023,2.122 c -0.297,0.616 -1.092,1.114 -1.775,1.114 l -37.53701,0.019 c -0.684,0.001 -1.49,-0.493 -1.801,-1.102 l -1.102,-2.153 z"
       id="path4027" />
    <path
       inkscape:connector-curvature="0"
       style="fill:#353c42"
       d="m 432.54591,387.72438 0,96.385 -150.68101,0 0,-96.385 c 0.093,-3.706 2.518,-5.271 5.625,-5.271 l 139.43701,0 c 0.148,0 0.297,0.006 0.445,0.019 2.897,0.209 5.174,2.485 5.174,5.252 z"
       id="path4029" />
    <path
       inkscape:connector-curvature="0"
       style="fill:#a7a9ac"
       d="m 454.39991,490.84138 c -1.609,1.113 -5.197,2.908 -7.227,2.938 -0.811,0.081 -180.57401,-0.104 -180.83301,-0.154 -1.108,-0.086 -5.358,-1.677 -6.794,-2.783 l 194.85401,0 z"
       id="path4033" />
    <circle
       style="fill:#d1d3d4"
       cx="356.75589"
       cy="386.81238"
       r="0.92799997"
       id="circle4035" />
    <rect
       style="fill:#58595b"
       x="289.53549"
       y="390.29218"
       width="133.929"
       height="87.139999"
       id="rect3802" />
    <rect
       style="fill:#6d6e70"
       x="293.91873"
       y="394.00452"
       width="23.801147"
       height="80.214302"
       id="rect3804" />
    <rect
       style="fill:#6d6e70"
       x="321.75519"
       y="394.00452"
       width="98.109482"
       height="80.214302"
       id="rect3806" />
    <rect
       style="fill:#e5e6e6"
       x="296.3092"
       y="398.58881"
       width="19.490269"
       height="1.5623064"
       id="rect3814" />
    <rect
       style="fill:#e5e6e6"
       x="326.89713"
       y="398.58881"
       width="5.1938028"
       height="1.5623064"
       id="rect3816" />
    <rect
       style="fill:#e5e6e6"
       x="323.3168"
       y="398.58881"
       width="1.2816999"
       height="1.5623064"
       id="rect3818" />
    <rect
       style="fill:#e5e6e6"
       x="326.89713"
       y="402.27438"
       width="22.586449"
       height="1.5611912"
       id="rect3820" />
    <rect
       style="fill:#e5e6e6"
       x="323.3168"
       y="402.27438"
       width="1.2816999"
       height="1.5611912"
       id="rect3822" />
    <rect
       style="fill:#e5e6e6"
       x="326.89713"
       y="405.9599"
       width="18.359865"
       height="1.5611912"
       id="rect3824" />
    <rect
       style="fill:#e5e6e6"
       x="323.3168"
       y="405.9599"
       width="1.2816999"
       height="1.5611912"
       id="rect3826" />
    <rect
       style="fill:#e5e6e6"
       x="326.89713"
       y="409.64542"
       width="27.585726"
       height="1.5623064"
       id="rect3828" />
    <rect
       style="fill:#e5e6e6"
       x="323.3168"
       y="409.64542"
       width="1.2816999"
       height="1.5623064"
       id="rect3830" />
    <rect
       style="fill:#e5e6e6"
       x="326.89713"
       y="413.33093"
       width="34.706406"
       height="1.5611912"
       id="rect3832" />
    <rect
       style="fill:#e5e6e6"
       x="323.3168"
       y="413.33093"
       width="1.2816999"
       height="1.5611912"
       id="rect3834" />
    <rect
       style="fill:#e5e6e6"
       x="323.3168"
       y="417.01755"
       width="1.2816999"
       height="1.5611912"
       id="rect3836" />
    <rect
       style="fill:#e5e6e6"
       x="323.3168"
       y="420.70312"
       width="1.2816999"
       height="1.5623064"
       id="rect3838" />
    <rect
       style="fill:#e5e6e6"
       x="326.89713"
       y="424.38864"
       width="43.403805"
       height="1.5623064"
       id="rect3840" />
    <rect
       style="fill:#e5e6e6"
       x="323.3168"
       y="424.38864"
       width="1.2816999"
       height="1.5623064"
       id="rect3842" />
    <rect
       style="fill:#e5e6e6"
       x="326.89713"
       y="428.07526"
       width="30.123192"
       height="1.5600762"
       id="rect3844" />
    <rect
       style="fill:#e5e6e6"
       x="323.3168"
       y="428.07526"
       width="1.2816999"
       height="1.5600762"
       id="rect3846" />
    <rect
       style="fill:#e5e6e6"
       x="326.89713"
       y="431.75967"
       width="24.020527"
       height="1.5623064"
       id="rect3848" />
    <rect
       style="fill:#e5e6e6"
       x="323.3168"
       y="431.75967"
       width="1.2816999"
       height="1.5623064"
       id="rect3850" />
    <rect
       style="fill:#e5e6e6"
       x="326.89713"
       y="435.44519"
       width="34.212528"
       height="1.5623064"
       id="rect3852" />
    <rect
       style="fill:#e5e6e6"
       x="323.3168"
       y="435.44519"
       width="1.2816999"
       height="1.5623064"
       id="rect3854" />
    <rect
       style="fill:#e5e6e6"
       x="326.89713"
       y="439.13187"
       width="28.494589"
       height="1.5600762"
       id="rect3856" />
    <rect
       style="fill:#e5e6e6"
       x="323.3168"
       y="439.13187"
       width="1.2816999"
       height="1.5600762"
       id="rect3858" />
    <rect
       style="fill:#e5e6e6"
       x="326.89713"
       y="442.81625"
       width="57.219364"
       height="1.5623064"
       id="rect3860" />
    <rect
       style="fill:#e5e6e6"
       x="323.3168"
       y="442.81625"
       width="1.2816999"
       height="1.5623064"
       id="rect3862" />
    <rect
       style="fill:#e5e6e6"
       x="326.89713"
       y="446.50177"
       width="10.385444"
       height="1.5623064"
       id="rect3864" />
    <rect
       style="fill:#e5e6e6"
       x="323.3168"
       y="446.50177"
       width="1.2816999"
       height="1.5623064"
       id="rect3866" />
    <rect
       style="fill:#e5e6e6"
       x="326.89713"
       y="450.18845"
       width="21.703526"
       height="1.5611912"
       id="rect3868" />
    <rect
       style="fill:#e5e6e6"
       x="323.3168"
       y="450.18845"
       width="1.2816999"
       height="1.5611912"
       id="rect3870" />
    <rect
       style="fill:#e5e6e6"
       x="326.89713"
       y="453.87396"
       width="1.6048267"
       height="1.5623064"
       id="rect3872" />
    <rect
       style="fill:#e5e6e6"
       x="323.3168"
       y="453.87396"
       width="1.2816999"
       height="1.5623064"
       id="rect3874" />
    <rect
       style="fill:#e5e6e6"
       x="296.3092"
       y="402.27438"
       width="19.490269"
       height="1.5611912"
       id="rect3876" />
    <rect
       style="fill:#e5e6e6"
       x="296.3092"
       y="405.9599"
       width="19.490269"
       height="1.5611912"
       id="rect3878" />
    <rect
       style="fill:#e5e6e6"
       x="296.3092"
       y="409.64542"
       width="19.490269"
       height="1.5623064"
       id="rect3880" />
    <rect
       style="fill:#e5e6e6"
       x="296.3092"
       y="413.33093"
       width="19.490269"
       height="1.5611912"
       id="rect3882" />
    <rect
       style="fill:#e5e6e6"
       x="296.3092"
       y="417.01755"
       width="19.490269"
       height="1.5611912"
       id="rect3884" />
    <rect
       style="fill:#e5e6e6"
       x="296.3092"
       y="420.70312"
       width="19.490269"
       height="1.5623064"
       id="rect3886" />
    <rect
       style="fill:#e5e6e6"
       x="296.3092"
       y="424.38864"
       width="19.490269"
       height="1.5623064"
       id="rect3888" />
    <rect
       style="fill:#e5e6e6"
       x="296.3092"
       y="428.07526"
       width="19.490269"
       height="1.5600762"
       id="rect3890" />
    <rect
       style="fill:#e5e6e6"
       x="296.3092"
       y="431.75967"
       width="19.490269"
       height="1.5623064"
       id="rect3892" />
    <rect
       style="fill:#e5e6e6"
       x="296.3092"
       y="435.44519"
       width="19.490269"
       height="1.5623064"
       id="rect3894" />
    <rect
       style="fill:#e5e6e6"
       x="296.3092"
       y="439.13187"
       width="19.490269"
       height="1.5600762"
       id="rect3896" />
    <rect
       style="fill:#e5e6e6"
       x="296.3092"
       y="442.81625"
       width="19.490269"
       height="1.5623064"
       id="rect3898" />
    <rect
       style="fill:#e5e6e6"
       x="296.3092"
       y="446.50177"
       width="19.490269"
       height="1.5623064"
       id="rect3900" />
    <rect
       style="fill:#e5e6e6"
       x="296.3092"
       y="450.18845"
       width="19.490269"
       height="1.5611912"
       id="rect3902" />
    <rect
       style="fill:#e5e6e6"
       x="296.3092"
       y="453.87396"
       width="19.490269"
       height="1.5623064"
       id="rect3904" />
  </g>
</svg>
