<?xml version="1.0" encoding="UTF-8" standalone="no"?>
<svg
   xmlns:dc="http://purl.org/dc/elements/1.1/"
   xmlns:cc="http://creativecommons.org/ns#"
   xmlns:rdf="http://www.w3.org/1999/02/22-rdf-syntax-ns#"
   xmlns:svg="http://www.w3.org/2000/svg"
   xmlns="http://www.w3.org/2000/svg"
   xmlns:sodipodi="http://sodipodi.sourceforge.net/DTD/sodipodi-0.dtd"
   xmlns:inkscape="http://www.inkscape.org/namespaces/inkscape"
   width="100%"
   height="100%"
   preserveAspectRatio="xMaxYMax"
   viewBox="0 0 800 260"
   id="workspace-svg"
   version="1.1"
   inkscape:version="1.0beta2 (2b71d25, 2019-12-03)"
   sodipodi:docname="welcome_portfolio.svg">
  <defs
     id="defs3830">
    <linearGradient
       gradientTransform="translate(258.5699,382.35338)"
       gradientUnits="userSpaceOnUse"
       id="SVGID_1_"
       x1="129.86571"
       x2="129.86571"
       y1="97.658203"
       y2="0.00048828131">
      <stop
         offset="0"
         style="stop-color:#FFFFFF;stop-opacity:0"
         id="stop4056" />
      <stop
         offset="0.9305"
         style="stop-color:#FFFFFF;stop-opacity:0.2"
         id="stop4058" />
    </linearGradient>
    <clipPath
       clipPathUnits="userSpaceOnUse"
       id="clipPath6698">
      <path
         d="m 300.767,393.892 293.847,0 0,-204.894 -293.847,0 0,204.894 z"
         id="path6700"
         inkscape:connector-curvature="0" />
    </clipPath>
    <linearGradient
       id="SVGID_1_-5"
       gradientUnits="userSpaceOnUse"
       x1="300"
       y1="0"
       x2="300"
       y2="221.3999"
       gradientTransform="matrix(0.10027778,0,0,0.10027778,407.66667,390.8622)">
      <stop
         offset="0"
         style="stop-color:#FFDCCD"
         id="stop26" />
      <stop
         offset="1"
         style="stop-color:#FFB99D"
         id="stop28" />
    </linearGradient>
    <filter
       filterRes="100"
       id="shadow"
       x="0"
       y="0">
      <feGaussianBlur
         stdDeviation="2 2"
         id="feGaussianBlur3493" />
      <feOffset
         dx="2"
         dy="2"
         id="feOffset3495" />
    </filter>
    <filter
       filterRes="100"
       id="filter7588"
       x="0"
       y="0">
      <feGaussianBlur
         stdDeviation="2 2"
         id="feGaussianBlur7590" />
      <feOffset
         dx="2"
         dy="2"
         id="feOffset7592" />
    </filter>
    <linearGradient
       id="black"
       x1="274.9498"
       x2="285.17123"
       y1="-76.265457"
       y2="-66.044014"
       gradientTransform="scale(1.0312267,0.96971891)"
       gradientUnits="userSpaceOnUse">
      <stop
         offset="0%"
         style="stop-color:rgb(150,150,150);stop-opacity:2"
         id="stop6522" />
      <stop
         offset="100%"
         style="stop-color:rgb(0,0,0);stop-opacity:2"
         id="stop6524" />
    </linearGradient>
    <filter
       filterRes="100"
       id="filter7597"
       x="0"
       y="0">
      <feGaussianBlur
         stdDeviation="2 2"
         id="feGaussianBlur7599" />
      <feOffset
         dx="2"
         dy="2"
         id="feOffset7601" />
    </filter>
    <linearGradient
       id="lightgrey"
       x1="0"
       x2="1"
       y1="0"
       y2="1">
      <stop
         offset="0%"
         style="stop-color:rgb(255,255,255);stop-opacity:1"
         id="stop6512" />
      <stop
         offset="100%"
         style="stop-color:rgb(220,220,220);stop-opacity:1"
         id="stop6514" />
    </linearGradient>
    <filter
       filterRes="100"
       id="filter7607"
       x="0"
       y="0">
      <feGaussianBlur
         stdDeviation="2 2"
         id="feGaussianBlur7609" />
      <feOffset
         dx="2"
         dy="2"
         id="feOffset7611" />
    </filter>
    <filter
       filterRes="100"
       id="filter7613"
       x="0"
       y="0">
      <feGaussianBlur
         stdDeviation="2 2"
         id="feGaussianBlur7615" />
      <feOffset
         dx="2"
         dy="2"
         id="feOffset7617" />
    </filter>
    <filter
       filterRes="100"
       id="filter7625"
       x="0"
       y="0">
      <feGaussianBlur
         stdDeviation="2 2"
         id="feGaussianBlur7627" />
      <feOffset
         dx="2"
         dy="2"
         id="feOffset7629" />
    </filter>
    <filter
       filterRes="100"
       id="filter7631"
       x="0"
       y="0">
      <feGaussianBlur
         stdDeviation="2 2"
         id="feGaussianBlur7633" />
      <feOffset
         dx="2"
         dy="2"
         id="feOffset7635" />
    </filter>
    <filter
       filterRes="100"
       id="filter7643"
       x="0"
       y="0">
      <feGaussianBlur
         stdDeviation="2 2"
         id="feGaussianBlur7645" />
      <feOffset
         dx="2"
         dy="2"
         id="feOffset7647" />
    </filter>
    <filter
       filterRes="100"
       id="filter7649"
       x="0"
       y="0">
      <feGaussianBlur
         stdDeviation="2 2"
         id="feGaussianBlur7651" />
      <feOffset
         dx="2"
         dy="2"
         id="feOffset7653" />
    </filter>
    <filter
       filterRes="100"
       id="filter7655"
       x="0"
       y="0">
      <feGaussianBlur
         stdDeviation="2 2"
         id="feGaussianBlur7657" />
      <feOffset
         dx="2"
         dy="2"
         id="feOffset7659" />
    </filter>
    <filter
       filterRes="100"
       id="filter7661"
       x="0"
       y="0">
      <feGaussianBlur
         stdDeviation="2 2"
         id="feGaussianBlur7663" />
      <feOffset
         dx="2"
         dy="2"
         id="feOffset7665" />
    </filter>
    <filter
       filterRes="100"
       id="filter7667"
       x="0"
       y="0">
      <feGaussianBlur
         stdDeviation="2 2"
         id="feGaussianBlur7669" />
      <feOffset
         dx="2"
         dy="2"
         id="feOffset7671" />
    </filter>
  </defs>
  <sodipodi:namedview
     inkscape:lockguides="true"
     id="base"
     pagecolor="#ffffff"
     bordercolor="#666666"
     borderopacity="1.0"
     inkscape:pageopacity="0.0"
     inkscape:pageshadow="2"
     inkscape:zoom="0.99066751"
     inkscape:cx="396.19751"
     inkscape:cy="129.23407"
     inkscape:document-units="px"
     inkscape:current-layer="layer1"
     showgrid="false"
     showguides="true"
     inkscape:window-width="1600"
     inkscape:window-height="880"
     inkscape:window-x="0"
     inkscape:window-y="23"
     inkscape:window-maximized="0"
     fit-margin-top="10"
     fit-margin-left="10"
     fit-margin-right="10"
     fit-margin-bottom="10"
     showborder="true"
     units="px"
     inkscape:document-rotation="0" />
  <metadata
     id="metadata3833">
    <rdf:RDF>
      <cc:Work
         rdf:about="">
        <dc:format>image/svg+xml</dc:format>
        <dc:type
           rdf:resource="http://purl.org/dc/dcmitype/StillImage" />
        <dc:title />
      </cc:Work>
    </rdf:RDF>
  </metadata>
  <g
     inkscape:groupmode="layer"
     id="layer3"
     inkscape:label="bakground"
     style="display:none"
     transform="translate(306.83414,-245.33147)"
     sodipodi:insensitive="true">
    <rect
       style="fill:#afdde9"
       id="rect4231"
       width="1051.8394"
       height="281.12613"
       x="-307.56885"
       y="233.36073" />
  </g>
  <g
     inkscape:groupmode="layer"
     id="layer5"
     inkscape:label="Imac"
     transform="translate(303.33414,57.530735)"
     style="display:inline">
    <g
       transform="matrix(1.6369943,0,0,1.6369943,-385.19676,-277.92946)"
       id="g8808">
      <g
         id="g8810">
        <path
           inkscape:connector-curvature="0"
           d="m 260.366,283.767 c -9.55133,0 -19.10267,0 -28.654,0 1.38733,-8.66433 2.77467,-17.32867 4.162,-25.993 6.77667,0 13.55333,0 20.33,0 1.38733,8.66433 2.77467,17.32867 4.162,25.993 z"
           style="fill:#ffffff"
           id="polygon8812" />
        <path
           inkscape:connector-curvature="0"
           d="m 257.559,265.905 c 0.97012,-8.27475 -4.25556,-9.23576 -11.23123,-8.131 -6.77014,-0.76951 -12.87502,-0.75372 -11.75253,7.79351 6.83837,0.77442 15.49866,0.12165 22.98376,0.33749 z"
           style="fill:#bebdbe"
           id="polygon8814" />
        <path
           inkscape:connector-curvature="0"
           d="m 314.012,171.607 c -45.31533,0 -90.63067,0 -135.946,0 -9.22296,2.08782 -4.52952,13.63087 -5.681,20.49735 0.29189,22.05662 -0.58753,44.23023 0.44638,66.21273 4.83816,6.23885 14.08858,2.40821 21.0366,3.46992 40.048,0 80.09601,0 120.14402,0 9.22416,-2.08628 4.53057,-13.63002 5.682,-20.49635 -0.29236,-22.05648 0.58848,-44.23035 -0.44709,-66.21246 -0.84635,-2.06356 -2.9978,-3.50467 -5.23491,-3.47119 z"
           style="fill:#404041"
           id="path8816" />
        <path
           inkscape:connector-curvature="0"
           d="m 178.88699,177.519 c 44.76767,0 89.53533,0 134.303,0 0,23.531 0,47.062 0,70.593 -44.76767,0 -89.53533,0 -134.303,0 0,-23.531 0,-47.062 0,-70.593 z"
           style="fill:#e5e6e6"
           id="rect8818" />
        <path
           inkscape:connector-curvature="0"
           d="m 189.914,196.411 c 25.97967,0 51.95933,0 77.939,0 0,15.57833 0,31.15667 0,46.735 -25.97967,0 -51.95933,0 -77.939,0 0,-15.57833 0,-31.15667 0,-46.735 z"
           style="fill:#ec565c"
           id="rect8820" />
        <g
           id="g8822">
          <path
             inkscape:connector-curvature="0"
             d="m 227.618,224.39 c -1.44443,-8.53956 0.82511,-10.64583 7.69747,-4.77919 -1.37274,1.52284 -5.37611,3.25086 -7.69747,4.77919 z"
             style="fill:#ffffff"
             id="polygon8824" />
          <g
             id="g8826">
            <g
               id="g8828">
              <path
                 inkscape:connector-curvature="0"
                 d="m 230.424,211.477 c -21.06987,3.4084 4.89124,29.37213 8.301,8.303 0.10794,-4.4439 -3.85655,-8.4108 -8.301,-8.303 z m 0,15.848 c -23.57662,-8.5356 15.963,-24.95296 5.33438,-2.21288 l -2.39958,1.61883 z"
                 style="fill:#ffffff"
                 id="path8830" />
            </g>
          </g>
        </g>
        <path
           inkscape:connector-curvature="0"
           d="m 189.914,241.73801 c 25.97967,0 51.95933,0 77.939,0 -2.77848,3.28705 -11.66367,0.46739 -16.7896,1.407 -20.38313,0 -40.76627,0 -61.1494,0 v -0.98762 z"
           style="fill:#6d6e70"
           id="rect8832" />
        <path
           inkscape:connector-curvature="0"
           d="m 271.33499,196.411 c 7.68193,-1.51339 11.63387,0.7032 9.617,8.88861 -5.19441,2.50779 -12.5877,0.90042 -9.617,-7.1736 v -0.98762 z"
           style="fill:#ec565c"
           id="rect8834" />
        <path
           inkscape:connector-curvature="0"
           d="m 271.33499,208.31799 c 7.68193,-1.51339 11.63387,0.7032 9.617,8.88861 -5.19441,2.50779 -12.5877,0.90042 -9.617,-7.1736 v -0.98762 z"
           style="fill:#ec565c"
           id="rect8836" />
        <path
           inkscape:connector-curvature="0"
           d="m 271.33499,220.22501 c 7.68193,-1.51339 11.63387,0.7032 9.617,8.88861 -5.18988,2.51176 -12.58965,0.90248 -9.617,-7.1716 v -0.98762 z"
           style="fill:#ec565c"
           id="rect8838" />
        <path
           inkscape:connector-curvature="0"
           d="m 271.33499,232.132 c 7.68193,-1.51339 11.63387,0.7032 9.617,8.88861 -5.19214,2.50978 -12.58868,0.90145 -9.617,-7.1726 v -0.98762 z"
           style="fill:#ec565c"
           id="rect8840" />
        <path
           inkscape:connector-curvature="0"
           d="m 283.52399,197.367 c 6.25467,0 12.50933,0 18.764,0 -1.9485,4.28936 -11.68849,0.78724 -16.7896,1.924 -1.98417,0.23979 -2.25963,0.10783 -1.9744,-1.924 z"
           style="fill:#6d6e70"
           id="rect8842" />
        <path
           inkscape:connector-curvature="0"
           d="m 283.52399,200.097 c 6.25467,0 12.50933,0 18.764,0 -4.01707,2.22934 -12.16067,0.33214 -17.77722,0.962 h -0.98678 z"
           style="fill:#6d6e70"
           id="rect8844" />
        <path
           inkscape:connector-curvature="0"
           d="m 283.52399,201.85699 c 6.25467,0 12.50933,0 18.764,0 -4.01517,2.23157 -12.16093,0.33255 -17.77722,0.963 h -0.98678 z"
           style="fill:#6d6e70"
           id="rect8846" />
        <path
           inkscape:connector-curvature="0"
           d="m 283.52399,209.713 c 6.25467,0 12.50933,0 18.764,0 -1.9485,4.28936 -11.68849,0.78724 -16.7896,1.924 -1.98417,0.23979 -2.25963,0.10783 -1.9744,-1.924 z"
           style="fill:#6d6e70"
           id="rect8848" />
        <path
           inkscape:connector-curvature="0"
           d="m 283.52399,212.44299 c 6.25467,0 12.50933,0 18.764,0 -4.01707,2.22934 -12.16067,0.33214 -17.77722,0.962 h -0.98678 z"
           style="fill:#6d6e70"
           id="rect8850" />
        <path
           inkscape:connector-curvature="0"
           d="m 283.52399,214.20399 c 6.25467,0 12.50933,0 18.764,0 -4.01707,2.22934 -12.16067,0.33214 -17.77722,0.962 h -0.98678 z"
           style="fill:#6d6e70"
           id="rect8852" />
        <path
           inkscape:connector-curvature="0"
           d="m 283.52399,221.664 c 6.25467,0 12.50933,0 18.764,0 -1.9485,4.28936 -11.68849,0.78724 -16.7896,1.924 -1.98417,0.23979 -2.25963,0.10783 -1.9744,-1.924 z"
           style="fill:#6d6e70"
           id="rect8854" />
        <path
           inkscape:connector-curvature="0"
           d="m 283.52399,224.394 c 6.25467,0 12.50933,0 18.764,0 -4.01897,2.2271 -12.16041,0.33173 -17.77722,0.961 h -0.98678 z"
           style="fill:#6d6e70"
           id="rect8856" />
        <path
           inkscape:connector-curvature="0"
           d="m 283.52399,226.15401 c 6.25467,0 12.50933,0 18.764,0 -4.01707,2.22934 -12.16067,0.33214 -17.77722,0.962 h -0.98678 z"
           style="fill:#6d6e70"
           id="rect8858" />
        <path
           inkscape:connector-curvature="0"
           d="m 283.52399,233.131 c 6.25467,0 12.50933,0 18.764,0 -1.94697,4.29123 -11.68849,0.78791 -16.7896,1.925 -1.98509,0.24035 -2.25926,0.10677 -1.9744,-1.925 z"
           style="fill:#6d6e70"
           id="rect8860" />
        <path
           inkscape:connector-curvature="0"
           d="m 283.52399,235.86 c 6.25467,0 12.50933,0 18.764,0 -4.01517,2.23157 -12.16093,0.33255 -17.77722,0.963 h -0.98678 z"
           style="fill:#6d6e70"
           id="rect8862" />
        <path
           inkscape:connector-curvature="0"
           d="m 283.52399,237.62199 c 6.25467,0 12.50933,0 18.764,0 -4.01707,2.22934 -12.16067,0.33214 -17.77722,0.962 h -0.98678 z"
           style="fill:#6d6e70"
           id="rect8864" />
        <path
           inkscape:connector-curvature="0"
           d="m 191.64,187.179 c 17.312,0 34.624,0 51.936,0 -0.20638,6.01528 -11.01312,1.4302 -15.80198,2.863 -12.04467,0 -24.08935,0 -36.13402,0 0,-0.95433 0,-1.90867 0,-2.863 z"
           style="fill:#6d6e70"
           id="rect8866" />
        <path
           inkscape:connector-curvature="0"
           d="m 178.88699,177.519 c 44.76767,0 89.53533,0 134.303,0 -2.26046,3.91074 -11.68523,0.65717 -16.7896,1.724 -39.17113,0 -78.34227,0 -117.5134,0 v -0.98762 z"
           style="fill:#ec565c"
           id="rect8868" />
        <path
           inkscape:connector-curvature="0"
           d="m 172.385,253.76 c -1.25985,10.3389 10.94235,7.81744 17.53248,8.027 41.36484,0 82.72968,0 124.09452,0 12.58847,-5.45647 1.81624,-10.41339 -6.16948,-8.027 -45.15251,0 -90.30501,0 -135.45752,0 z"
           style="fill:#ffffff"
           id="path8870" />
        <path
           inkscape:connector-curvature="0"
           d="m 232.028,281.245 c -0.10046,5.4849 10.94712,1.1314 15.48598,2.522 3.33757,-0.0747 17.65969,1.04237 10.56077,-2.522 -8.68225,0 -17.3645,0 -26.04675,0 z"
           style="fill:#bebdbe"
           id="polygon8872" />
        <path
           inkscape:connector-curvature="0"
           d="m 223.52699,282.75299 c 15.00767,0 30.01533,0 45.023,0 -1.23823,4.70443 -11.18433,0.70099 -15.80198,2.026 -9.74034,0 -19.48068,0 -29.22102,0 0,-0.67533 0,-1.35067 0,-2.026 z"
           style="fill:#ffffff"
           id="rect8874" />
        <path
           inkscape:connector-curvature="0"
           d="m 223.52699,284.30099 c 15.00767,0 30.01533,0 45.023,0 -8.20378,1.18271 -18.60584,0.16713 -27.65346,0.506 -5.57567,-0.33914 -12.65503,0.67579 -17.36954,-0.506 z"
           style="fill:#bebdbe"
           id="rect8876" />
        <path
           inkscape:connector-curvature="0"
           d="m 248.573,257.77399 c 0.0534,4.12233 -6.71846,2.47114 -4.78698,-1.15985 1.13521,-2.34494 4.84753,-1.4502 4.78698,1.15985 z"
           style="fill:#404041"
           id="circle8878" />
      </g>
    </g>
  </g>
  <g
     inkscape:groupmode="layer"
     id="layer7"
     inkscape:label="pens"
     style="display:inline"
     transform="translate(303.33414,57.530735)">
    <g
       transform="matrix(1.2716632,0,0,1.5545436,-1366.0173,-229.48372)"
       id="g9396">
      <g
         id="g9398">
        <g
           id="g9400">
          <path
             inkscape:connector-curvature="0"
             d="m 1016.19,242.08373 c 6.1043,-0.18709 3.6079,12.50055 6.2354,17.51787 2.7673,12.40309 -4.2567,2.72109 -3.6445,-4.50006 -0.8636,-4.33927 -1.7273,-8.67854 -2.5909,-13.01781 z"
             style="fill:#f29120;stroke-width:1.00004"
             id="rect9402" />
          <path
             inkscape:connector-curvature="0"
             d="m 1016.966,239.523 c 5.2056,2.33815 -3.7454,4.55876 0,0 z"
             style="fill:#d4b792"
             id="polygon9404" />
          <path
             inkscape:connector-curvature="0"
             d="m 1016.966,239.523 c -1.7446,1.66102 1.9776,0.5984 0,0 z"
             style="fill:#404041"
             id="polygon9406" />
        </g>
        <g
           id="g9408">
          <path
             inkscape:connector-curvature="0"
             d="m 1032.0939,242.02735 c 5.3961,2.85693 -3.0473,12.64901 -3.2449,18.30904 -3.7293,12.14861 -5.0437,0.26 -0.9413,-5.71326 1.3954,-4.19859 2.7908,-8.39719 4.1862,-12.59578 z"
             style="fill:#fcf018;stroke-width:1.00004"
             id="rect9410" />
          <path
             inkscape:connector-curvature="0"
             d="m 1034.009,240.225 c 3.3675,4.60714 -5.5169,2.10368 0,0 z"
             style="fill:#d4b792"
             id="polygon9412" />
          <path
             inkscape:connector-curvature="0"
             d="m 1034.009,240.225 c -2.3373,0.57857 1.418,1.49654 0,0 z"
             style="fill:#404041"
             id="polygon9414" />
        </g>
        <g
           id="g9416">
          <g
             id="g9418">
            <path
               inkscape:connector-curvature="0"
               d="m 1033.395,252.655 c -5.1045,1.78726 -17.6967,-4.08162 -16.974,3.91463 -0.5402,7.23761 -1.54,15.68944 8.5141,12.48037 9.84,3.09943 9.8012,-4.43011 8.9239,-11.96376 -0.3404,-1.36277 0.6648,-3.40983 -0.464,-4.43124 z"
               style="fill:#404041"
               id="path9420" />
          </g>
        </g>
      </g>
    </g>
  </g>
  <g
     inkscape:groupmode="layer"
     id="layer11"
     inkscape:label="glasses"
     transform="translate(303.33414,57.530735)"
     style="display:inline">
    <g
       id="g9928"
       transform="matrix(0.26414603,0,0,-0.26414605,415.0602,167.81616)">
      <path
         inkscape:connector-curvature="0"
         d="M 0,0 C 66.599511,-11.496677 246.50727,12.799097 220.44497,-68.13325 209.74941,27.312317 39.427092,-53.711702 -4.9637031,-1.8028281 Z"
         style="fill:#254659;fill-opacity:1;fill-rule:evenodd;stroke:none"
         id="path9930" />
    </g>
    <g
       id="g9932"
       transform="matrix(0.26414603,0,0,-0.26414605,477.2235,168.62973)">
      <path
         inkscape:connector-curvature="0"
         d="m 0,0 c -66.877663,-9.7508659 -246.08709,19.247129 -222.15319,-62.340484 13.19033,95.132819 181.333485,9.67828 227.0677213,60.4078121 z"
         style="fill:#254659;fill-opacity:1;fill-rule:evenodd;stroke:none"
         id="path9934" />
    </g>
    <g
       id="g9936"
       transform="matrix(0.26414603,0,0,-0.26414605,429.3091,166.61395)">
      <path
         inkscape:connector-curvature="0"
         d="M 0,0 C -96.109674,41.089875 -53.329565,-100.10214 0,-77.654 -62.105163,-81.77777 -57.452186,13.822692 0,0 Z m 63.394,-10.803 c -49.357352,9.1284906 -87.215857,16.5421686 -21.778,-7.915 10.03899,-49.347169 -79.78286,-89.66499 0.661,-38.963 6.35435,82.917691 103.81764,-68.57202 64.969,-17.839 C 11.757833,1.1231992 212.84283,4.1783653 63.394,-10.803 Z m 63.339,-73.345 c 70.35927,-4.269591 80.86175,125.589977 0,77.297 72.95809,16.975966 45.9947,-80.827344 0,-77.297 z"
         style="fill:#000000;fill-opacity:1;fill-rule:evenodd;stroke:none"
         id="path9938" />
    </g>
    <g
       id="g9940"
       transform="matrix(0.26414603,0,0,-0.26414605,472.71419,169.58417)">
      <path
         inkscape:connector-curvature="0"
         d="M 0,0 C -93.24307,52.117934 -103.66845,-98.660332 -10.859453,-61.964672 7.6737242,-50.410564 13.755082,-16.965459 0,0 Z m -201.361,2.636 c 94.57555,49.657484 101.04908,-101.340088 9.23269,-62.228281 -18.22407,12.035731 -23.42661,45.628676 -9.23269,62.228281 z"
         style="fill:#b0cad9;fill-opacity:1;fill-rule:evenodd;stroke:none"
         id="path9942" />
    </g>
    <g
       id="g9944"
       transform="matrix(0.26414603,0,0,-0.26414605,420.96349,168.41036)">
      <path
         inkscape:connector-curvature="0"
         d="M 0,0 C 67.426641,47.275337 101.37029,-85.939509 40.798516,-35.080617 27.199011,-23.387078 13.599505,-11.693539 0,0 Z"
         style="fill:#d1e2eb;fill-opacity:1;fill-rule:evenodd;stroke:none"
         id="path9946" />
    </g>
    <g
       id="g9948"
       transform="matrix(0.26414603,0,0,-0.26414605,454.28818,169.98181)">
      <path
         inkscape:connector-curvature="0"
         d="M 0,0 C 29.050196,-22.743533 87.260326,-95.77161 75.458969,-7.3225469 61.979453,16.323095 21.387621,4.4454583 0,0 Z"
         style="fill:#d1e2eb;fill-opacity:1;fill-rule:evenodd;stroke:none"
         id="path9950" />
    </g>
    <g
       id="g9952"
       transform="matrix(0.26414603,0,0,-0.26414605,423.07975,168.08815)">
      <path
         inkscape:connector-curvature="0"
         d="m 0,0 c 18.157761,-5.7603578 62.496446,7.2288306 68.126,-21.043 -34.211653,-1.148279 -90.246493,0.917393 -87.2565,-21.384125 8.257289,38.3200884 -10.20396,61.337244 5.6745,39.399125 L 0,0 Z m 174.552,-2.287 c -18.23386,-5.2939828 -62.25992,8.8767398 -68.672,-19.247 33.97196,-2.349328 90.27303,-1.107502 86.7,-23.5335 -7.35612,38.433726 11.57806,60.96133 -4.675,39.4035 z"
         style="fill:#617f91;fill-opacity:1;fill-rule:evenodd;stroke:none"
         id="path9954" />
    </g>
    <g
       id="g9956"
       transform="matrix(0.26414603,0,0,-0.26414605,420.96323,168.41022)">
      <path
         inkscape:connector-curvature="0"
         d="M 0,0 C 14.672305,-25.815109 80.464967,5.4200767 73.6,-12.478 57.645762,7.9288215 20.76634,-3.4277139 0,0 Z"
         style="fill:#8097a6;fill-opacity:1;fill-rule:evenodd;stroke:none"
         id="path9958" />
    </g>
    <g
       id="g9960"
       transform="matrix(0.26414603,0,0,-0.26414605,469.18691,168.6923)">
      <path
         inkscape:connector-curvature="0"
         d="M 0,0 C -86.060986,5.6093451 -38.290045,-25.156154 11.435875,-32.7925 37.996001,-92.217589 -18.571885,18.403407 19.427,-13.66 l -6.073,10.284 z"
         style="fill:#8097a6;fill-opacity:1;fill-rule:evenodd;stroke:none"
         id="path9962" />
    </g>
  </g>
  <g
     inkscape:groupmode="layer"
     id="layer8"
     inkscape:label="lamp"
     transform="translate(306.83414,-245.33147)"
     style="display:inline">
    <g
       style="display:inline;fill:#bcbec0;fill-opacity:1"
       id="g6658"
       transform="matrix(0.49994679,0,0,-0.49994679,-284.02693,484.75523)">
      <path
         inkscape:connector-curvature="0"
         d="M 0,0 C 24.709368,-11.844438 16.111195,27.005674 23.617441,41.344632 28.086693,53.275553 27.688494,100.98037 23.133954,66.720507 18.401636,43.855672 13.669318,20.990836 8.937,-1.874 2.8339894,10.613099 15.715969,35.570981 16.638238,52.672817 21.644516,77.470475 28.747585,102.05342 26.411,127.603 17.607333,85.068667 8.8036667,42.534333 0,0 Z m 26.411,54.841 c 8.806667,42.549 17.613333,85.098 26.42,127.647 -24.710084,11.84664 -16.111798,-27.00424 -23.617475,-41.34383 -4.47452,-11.92601 -4.08577,-59.693477 0.474596,-25.42069 4.732293,22.86417 9.464586,45.72835 14.196879,68.59252 6.102977,-12.48504 -6.779079,-37.44465 -7.701344,-54.5458 C 31.163194,104.83917 24.083481,80.540021 26.411,54.841 Z"
         style="fill:#bcbec0;fill-opacity:1;fill-rule:evenodd;stroke:none"
         id="path6660" />
    </g>
    <g
       style="display:inline;fill:#bcbec0;fill-opacity:1"
       id="g6662"
       transform="matrix(0.49994679,0,0,-0.49994679,-206.92313,361.30351)">
      <path
         inkscape:connector-curvature="0"
         d="m 0,0 c -32.318667,-12.972 -64.637333,-25.944 -96.956,-38.916 3.791454,-27.139205 31.410351,1.50356 47.509248,3.177072 C -34.671918,-25.951454 -5.4525386,-25.930896 0,-9.84 c -31.185,-12.516667 -62.37,-25.033333 -93.555,-37.55 7.032579,11.988391 34.94986,15.052628 49.710533,23.738759 C -31.437176,-14.932554 -2.8247076,-14.873838 0,0 Z M 96.955,23.024 C 93.162786,50.16201 65.544252,21.519169 49.445657,19.846165 34.671503,10.058392 5.450271,10.039307 0,-6.053 31.184667,6.4636667 62.369333,18.980333 93.554,31.497 86.524415,19.508962 58.604382,16.444271 43.844467,7.7582409 33.421342,2.5588306 -11.429811,-10.682634 6.0021736,-13.482835 36.319782,-1.31389 66.637391,10.855055 96.955,23.024 Z"
         style="fill:#bcbec0;fill-opacity:1;fill-rule:evenodd;stroke:none"
         id="path6664" />
    </g>
    <g
       style="display:inline"
       id="g6666"
       transform="matrix(0.49994679,0,0,-0.49994679,-148.28343,365.61555)">
      <path
         inkscape:connector-curvature="0"
         d="M 0,0 C 55.795587,35.750307 -54.563124,36.057322 0,0 Z"
         style="fill:#fcb200;fill-opacity:1;fill-rule:evenodd;stroke:none"
         id="path6668" />
    </g>
    <g
       style="display:inline"
       id="g6670"
       transform="matrix(0.49994679,0,0,-0.49994679,-170.17291,324.42392)">
      <path
         inkscape:connector-curvature="0"
         d="M 0,0 C 18.557139,12.398699 -17.928862,10.845639 0,0 Z"
         style="fill:#fffdfa;fill-opacity:1;fill-rule:evenodd;stroke:none"
         id="path6672" />
    </g>
    <g
       style="display:inline"
       id="g6674"
       transform="matrix(0.49994679,0,0,-0.49994679,-170.17266,322.12312)">
      <path
         inkscape:connector-curvature="0"
         d="M 0,0 C 24.721821,10.784066 38.852611,-30.648765 69.395873,-29.58523 112.06904,-61.556941 19.740292,-72.761323 2.709,-99.452 c -13.18879,30.406096 -6.5488351,69.031824 -9.25925,94.849875 z"
         style="fill:#c6232f;fill-opacity:1;fill-rule:evenodd;stroke:none"
         id="path6676" />
    </g>
    <g
       style="display:inline"
       id="g6678"
       transform="matrix(0.49994679,0,0,-0.49994679,-265.48016,381.12272)">
      <path
         inkscape:connector-curvature="0"
         d="M 0,0 C 69.259929,15.925147 -13.342959,-68.856058 0,0 Z"
         style="fill:#c6232f;fill-opacity:1;fill-rule:evenodd;stroke:none"
         id="path6680" />
    </g>
    <g
       style="display:inline"
       id="g6682"
       transform="matrix(0.49994679,0,0,-0.49994679,-171.42329,338.66705)">
      <path
         inkscape:connector-curvature="0"
         d="M 0,0 C 8.664188,19.733629 60.20052,23.07638 16.76175,8.64875 8.9262057,14.076673 2.9747208,-16.468146 0,0 Z"
         style="fill:#fffdfa;fill-opacity:1;fill-rule:nonzero;stroke:none"
         id="path6684" />
    </g>
    <g
       style="display:inline"
       id="g6686"
       transform="matrix(0.49994679,0,0,-0.49994679,-259.93634,392.28803)">
      <path
         inkscape:connector-curvature="0"
         d="M 0,0 C 44.195748,28.318055 -43.220912,28.559123 0,0 Z"
         style="fill:#b7d5eb;fill-opacity:1;fill-rule:evenodd;stroke:none"
         id="path6688" />
    </g>
    <g
       style="display:inline"
       id="g6690"
       transform="matrix(0.49994679,0,0,-0.49994679,-278.36111,470.95151)">
      <path
         inkscape:connector-curvature="0"
         d="M 0,0 C 37.723274,0.00548251 50.372498,-52.583535 4.6128787,-36.951 -22.745504,-41.888258 -57.363342,-35.544856 -20.659131,-6.3107227 -14.610778,-2.2030907 -7.3121824,0.0227388 0,0 Z"
         style="fill:#c6232f;fill-opacity:1;fill-rule:evenodd;stroke:none"
         id="path6692" />
    </g>
    <g
       transform="matrix(0.70394178,-0.0028391,-0.0028391,-0.70394178,-381.19794,624.56138)"
       style="display:inline"
       id="g6694">
      <g
         id="g6696" />
      <g
         id="g6702">
        <g
           clip-path="url(#clipPath6698)"
           id="g6704"
           style="opacity:0.300003">
          <g
             transform="translate(300.7666,342.918)"
             id="g6706">
            <path
               inkscape:connector-curvature="0"
               d="M 1.2341376,16.884377 C 21.678418,28.447324 42.122699,40.010271 62.56698,51.573218 139.984,-16.749715 217.40102,-85.072647 294.81804,-153.39558 196.76187,-172.23125 98.705709,-191.06692 0.64954318,-209.90259 0.84440799,-134.30693 1.0392728,-58.711279 1.2341376,16.884377 Z"
               style="fill:#b3b3b3;fill-opacity:1;fill-rule:evenodd;stroke:none"
               id="path6708" />
          </g>
        </g>
      </g>
    </g>
  </g>
  <g
     inkscape:groupmode="layer"
     id="layer6"
     inkscape:label="headphone"
     style="display:inline"
     transform="translate(306.83414,-245.33147)">
    <g
       transform="matrix(0.86158035,0,0,-0.86158035,-181.44778,477.93654)"
       id="g250">
      <path
         inkscape:connector-curvature="0"
         d="M 0,0 C -9.2315294,10.867257 1.2603791,56.940286 -1.6221152,20.347926 -4.6329277,15.325643 6.2176539,1.4135648 0,0 Z"
         style="fill:#ffffff;fill-opacity:1;fill-rule:nonzero;stroke:none"
         id="path252" />
    </g>
    <g
       transform="matrix(0.86158035,0,0,-0.86158035,-172.70155,481.67106)"
       id="g254">
      <path
         inkscape:connector-curvature="0"
         d="M 0,0 C -8.8975023,-19.215898 -17.630043,23.990153 -2.5177228,7.6261222 -1.6784818,5.0840815 -0.83924092,2.5420407 0,0 Z"
         style="fill:#453f41;fill-opacity:1;fill-rule:nonzero;stroke:none"
         id="path256" />
    </g>
    <g
       transform="matrix(0.86158035,0,0,-0.86158035,-163.66166,481.66305)"
       id="g258">
      <path
         inkscape:connector-curvature="0"
         d="M 0,0 C -5.8574852,-23.929668 -29.456786,11.967714 -14.325192,18.464487 -2.8966139,23.056179 -3.5674945,6.3753314 0,0 Z"
         style="fill:#60aacf;fill-opacity:1;fill-rule:nonzero;stroke:none"
         id="path260" />
    </g>
    <g
       transform="matrix(0.86158035,0,0,-0.86158035,-160.89609,485.04036)"
       id="g262">
      <path
         inkscape:connector-curvature="0"
         d="M 0,0 C -8.6896015,-15.090674 -13.137948,14.218961 -16.545,21.84 -8.3687107,40.532119 -3.0928967,5.01577 0,0 Z"
         style="fill:#ffffff;fill-opacity:1;fill-rule:nonzero;stroke:none"
         id="path264" />
    </g>
    <g
       transform="matrix(0.86158035,0,0,-0.86158035,-127.39792,478.1204)"
       id="g266">
      <path
         inkscape:connector-curvature="0"
         d="M 0,0 C -0.26806003,7.9344815 2.4248934,57.811061 4.0971973,20.22191 3.751446,13.325468 2.3158476,6.4975791 0,0 Z"
         style="fill:#ffffff;fill-opacity:1;fill-rule:nonzero;stroke:none"
         id="path268" />
    </g>
    <g
       transform="matrix(0.86158035,0,0,-0.86158035,-136.16768,481.79556)"
       id="g270">
      <path
         inkscape:connector-curvature="0"
         d="M 0,0 C 8.7646552,-19.278641 17.795479,23.86898 2.570395,7.6082396 1.7135967,5.0721597 0.85679834,2.5360799 0,0 Z"
         style="fill:#453f41;fill-opacity:1;fill-rule:nonzero;stroke:none"
         id="path272" />
    </g>
    <g
       transform="matrix(0.86158035,0,0,-0.86158035,-145.20757,481.72612)"
       id="g274">
      <path
         inkscape:connector-curvature="0"
         d="M 0,0 C 5.6930747,-23.967834 29.534602,11.765687 14.452194,18.365469 3.0554035,23.036184 3.6119653,6.3506265 0,0 Z"
         style="fill:#60aacf;fill-opacity:1;fill-rule:nonzero;stroke:none"
         id="path276" />
    </g>
    <g
       transform="matrix(0.86158035,0,0,-0.86158035,-147.99591,485.08413)"
       id="g278">
      <path
         inkscape:connector-curvature="0"
         d="M 0,0 C 8.5870842,-15.149737 13.234981,14.12956 16.695,21.727 8.6421257,40.469928 3.1287148,4.9953821 0,0 Z"
         style="fill:#ffffff;fill-opacity:1;fill-rule:nonzero;stroke:none"
         id="path280" />
    </g>
    <g
       transform="matrix(0.86158035,0,0,-0.86158035,-181.41075,448.52373)"
       id="g282">
      <path
         inkscape:connector-curvature="0"
         d="M 0,0 C -5.93977,29.23968 55.761236,36.797586 66.616,6.202 59.440755,-3.8498523 36.050192,34.657972 17.094197,16.121107 8.3629387,13.984322 6.883275,3.2460185 0,0 Z"
         style="fill:#ffffff;fill-opacity:1;fill-rule:nonzero;stroke:none"
         id="path284" />
    </g>
    <g
       transform="matrix(0.86158035,0,0,-0.86158035,-182.63918,448.252)"
       id="g286">
      <path
         inkscape:connector-curvature="0"
         d="M 0,0 C 14.889161,24.155218 50.552264,22.825815 66.851,1.156 59.801334,29.630398 2.3100652,29.910833 0,0 Z"
         style="fill:#f1f2f2;fill-opacity:1;fill-rule:nonzero;stroke:none"
         id="path288" />
    </g>
  </g>
  <g
     inkscape:groupmode="layer"
     id="layer9"
     inkscape:label="mail"
     transform="translate(306.83414,-245.33147)"
     style="display:inline">
    <path
       inkscape:connector-curvature="0"
       d="m 408.0397,426.73788 c 6.59528,-5.26027 20.5894,-9.85445 22.79631,-15.50979 -7.62342,-6.00969 -16.01486,-15.44503 -23.16934,-19.36311 0.2684,11.58534 -0.52396,23.43294 0.37303,34.8729 z"
       style="display:inline;fill:#ff6521"
       id="path13" />
    <path
       inkscape:connector-curvature="0"
       d="m 467.51876,391.13867 c -8.02302,7.05223 -16.04605,14.10446 -24.06907,21.15669 7.98147,4.0662 17.02205,11.66602 24.38364,13.66406 -0.22575,-11.57747 0.44103,-23.35489 -0.31457,-34.82075 z"
       style="display:inline;fill:#ff6521"
       id="path15" />
    <path
       inkscape:connector-curvature="0"
       d="m 443.44969,412.29536 c -7.17267,8.07798 -15.04645,-4.04882 -23.86819,7.50011 -14.82632,6.62236 -10.02575,8.45795 3.6386,7.16673 14.73364,-0.15057 29.57122,0.30046 44.2402,-0.22432 -8.00354,-4.81417 -16.00707,-9.62835 -24.01061,-14.44252 z"
       style="display:inline;fill:#c43d17"
       id="path17" />
    <path
       inkscape:connector-curvature="0"
       d="m 440.88298,410.75159 c 8.34347,1.20657 15.38756,-12.02008 23.20994,-16.60159 7.80555,-6.88594 -12.33722,8.8519 -16.11373,11.36454 -2.36539,1.74569 -4.73091,3.49135 -7.09621,5.23705 z"
       style="display:inline;fill:#e04714"
       id="path19" />
    <path
       inkscape:connector-curvature="0"
       d="m 408.00811,391.1142 c 7.90607,7.06125 16.04565,14.12066 24.04217,21.1812 3.01032,-5.50548 -14.37775,-11.97297 -19.5477,-17.86424 -1.49812,-1.10566 -2.99646,-2.2113 -4.49447,-3.31696 z"
       style="display:inline;fill:#e04714"
       id="path21" />
    <path
       inkscape:connector-curvature="0"
       d="m 437.75,417.30545 c 15.83974,-7.44483 -14.61751,-8.20244 -0.84247,-0.74054 z"
       style="display:inline;fill:#a03016;stroke-width:0.100278"
       id="polygon23" />
    <path
       inkscape:connector-curvature="0"
       d="m 466.83057,390.8622 c -19.5919,0.16868 -39.30791,-0.33691 -58.82246,0.252 9.91396,7.3165 19.82793,14.633 29.74189,21.9495 9.28091,-7.30229 21.85212,-15.19646 29.08057,-22.2015 z"
       style="display:inline;fill:url(#SVGID_1_-5)"
       id="path30" />
  </g>
  <g
     inkscape:groupmode="layer"
     id="layer10"
     inkscape:label="diagramme"
     style="display:inline;opacity:1"
     transform="translate(306.83414,-245.33147)">
    <g
       transform="translate(-45.06507,172.83856)"
       id="g8722">
      <path
         inkscape:connector-curvature="0"
         d="m 333.871,183.54401 c 21.40433,0 42.80867,0 64.213,0 0,17.29767 0,34.59533 0,51.893 -21.40433,0 -42.80867,0 -64.213,0 0,-17.29767 0,-34.59533 0,-51.893 z"
         style="fill:#ffffff"
         id="rect8724" />
      <path
         inkscape:connector-curvature="0"
         d="m 353.72899,224.22 c -1.67745,3.04286 -2.22424,-2.89081 0,0 z"
         style="fill:#6d6e70"
         id="circle8726" />
      <path
         inkscape:connector-curvature="0"
         d="m 356.386,224.22 c -1.67745,3.04286 -2.22424,-2.89081 0,0 z"
         style="fill:#6d6e70"
         id="circle8728" />
      <path
         inkscape:connector-curvature="0"
         d="m 358.67699,224.22 c -1.67745,3.04286 -2.22424,-2.89081 0,0 z"
         style="fill:#6d6e70"
         id="circle8730" />
      <path
         inkscape:connector-curvature="0"
         d="m 387.019,194.788 c -11.2875,-1.42355 -20.7726,-1.04469 -16.658,12.93387 1.8875,5.84699 23.12098,6.05739 16.658,-6.60627 0,-2.1092 0,-4.2184 0,-6.3276 z m -0.916,15.113 c -12.34057,2.66624 -17.94954,-1.39913 -14.826,-14.197 14.33998,-1.06811 16.67466,-1.41106 14.826,14.197 z m 0.916,2.062 c -11.2875,-1.42355 -20.7726,-1.04469 -16.658,12.93387 1.88928,5.84541 23.12057,6.05627 16.658,-6.60727 0,-2.10887 0,-4.21773 0,-6.3266 z m -0.916,15.112 c -12.3414,2.66673 -17.94926,-1.40007 -14.826,-14.198 14.34093,-1.06867 16.67432,-1.41005 14.826,14.198 z m -44.096,-38.301 c 0,13.811 0,27.622 0,41.433 15.98,0 31.96,0 47.94,0 0,-13.811 0,-27.622 0,-41.433 -15.98,0 -31.96,0 -47.94,0 z m 47.026,40.518 c -15.37,0 -30.74,0 -46.11,0 0,-12.01767 0,-24.03533 0,-36.053 15.37,0 30.74,0 46.11,0 0,12.01767 0,24.03533 0,36.053 z m 0,-36.969 c -15.37,0 -30.74,0 -46.11,0 4.00392,-6.03524 19.11971,-0.95861 27.48448,-2.633 4.80292,1.60391 18.54008,-3.30994 18.62552,2.633 z m -22.598,8.407 c -7.97401,1.95654 -25.62221,-5.7611 -21.708,8.08367 -4.39613,14.48175 12.37226,7.79898 21.01754,9.23933 1.57687,-4.15358 0.25241,-12.02131 0.69046,-17.323 z m -0.916,16.408 c -8.78224,-1.07689 -24.54773,4.82946 -19.877,-9.7004 -3.69069,-9.36071 19.8942,-7.67139 19.877,-2.55913 0,4.08651 0,8.17302 0,12.25953 z m -9.156,-4.821 c 11.39735,-7.6181 -11.01154,-6.65989 0,0 z m 0,-5.396 c 10.36154,6.92505 -10.01238,6.05255 0,0 z m 9.614,-11.675 c -6.46062,-0.40636 -30.89445,0.39367 -12.70833,0.888 3.74959,-0.64473 10.51771,1.254 12.70833,-0.888 z m -10.57,12.673 c -2.23124,6.64172 6.4744,0.61 0,0 z"
         style="fill:#6d6e70"
         id="path8732" />
      <path
         inkscape:connector-curvature="0"
         d="m 332.501,191.251 c 0.43417,-6.06699 16.42172,-14.79094 4.62284,-2.00195 -2.58413,2.99173 -3.75652,5.66608 -4.62284,2.00195 z"
         style="fill:#1ca3c8"
         id="polygon8734" />
      <path
         inkscape:connector-curvature="0"
         d="m 392.388,181.388 c 6.14101,0.60342 14.19427,15.8624 1.69008,4.23769 -2.8592,-2.36628 -5.17136,-3.46731 -1.69008,-4.23769 z"
         style="fill:#1ca3c8"
         id="polygon8736" />
    </g>
  </g>
  <g
     inkscape:groupmode="layer"
     id="layer4"
     inkscape:label="clock"
     transform="translate(306.26529,-245)">
    <path
       inkscape:connector-curvature="0"
       d="m 211,285 c 0.93964,21.39783 -24.58854,37.21825 -43.33398,26.87387 -19.58306,-8.66926 -22.42059,-38.56766 -4.81302,-50.76291 16.46913,-13.68916 44.51272,-2.93875 47.61243,18.25089 0.35543,1.85693 0.53468,3.74752 0.53457,5.63815 z"
       style="fill:#0a646c"
       id="circle193" />
    <path
       inkscape:connector-curvature="0"
       d="m 208,285 c 0.85689,19.35713 -22.34089,33.58958 -39.21129,24.08079 -17.64872,-7.99084 -19.86575,-35.11593 -3.74312,-45.86282 15.10751,-12.12554 40.30246,-1.83188 42.59709,17.40395 0.23774,1.44643 0.35738,2.91224 0.35732,4.37808 z"
       style="fill:#fffdfe"
       id="circle196" />
    <path
       inkscape:connector-curvature="0"
       d="m 181,261 c 0,1.33333 0,2.66667 0,4"
       style="stroke:#0a646c;stroke-width:2"
       id="line198" />
    <path
       inkscape:connector-curvature="0"
       d="m 201,285 c 1.33333,0 2.66667,0 4,0"
       style="stroke:#0a646c;stroke-width:2"
       id="line200" />
    <path
       inkscape:connector-curvature="0"
       d="m 181,305 c 0,1.33333 0,2.66667 0,4"
       style="stroke:#0a646c;stroke-width:2"
       id="line202" />
    <path
       inkscape:connector-curvature="0"
       d="m 157,285 c 1.33333,0 2.66667,0 4,0"
       style="stroke:#0a646c;stroke-width:2"
       id="line204" />
    <g
       id="second">
      <path
         inkscape:connector-curvature="0"
         d="m 181,260 c 0,9.33333 0,18.66667 0,28"
         style="stroke:#ed1c24;stroke-width:1"
         id="line207" />
    </g>
    <g
       id="minute">
      <path
         inkscape:connector-curvature="0"
         d="m 181,265 c 0,7.66667 0,15.33333 0,23"
         style="stroke:#231f20;stroke-width:1"
         id="line210" />
    </g>
    <g
       id="hour">
      <path
         inkscape:connector-curvature="0"
         d="m 181,270 c 0,6 0,12 0,18"
         style="stroke:#231f20;stroke-width:1"
         id="line213" />
    </g>
  </g>
  <g
     inkscape:label="coffee"
     inkscape:groupmode="layer"
     id="layer1"
     style="display:inline"
     transform="translate(306.83414,-245.33147)">
    <g
       transform="matrix(0.95221244,0,0,-0.95221244,327.15031,457.75407)"
       id="g906">
      <path
         inkscape:connector-curvature="0"
         d="M 0,0 C -2.821505,-15.31873 4.6265264,-35.084638 23.550613,-31.499 40.256519,-34.940389 49.096824,-5.8118561 39.423258,0 26.282172,0 13.141086,0 0,0 Z"
         style="fill:#ffffff;fill-opacity:1;fill-rule:nonzero;stroke:none"
         id="path908" />
    </g>
    <g
       transform="matrix(0.95221244,0,0,-0.95221244,327.71935,492.90223)"
       id="g910">
      <path
         inkscape:connector-curvature="0"
         d="M 0,0 C 13.874333,0 27.748667,0 41.623,0 53.279503,10.125865 25.394964,3.5443777 17.829191,5.413 12.862827,3.5551645 -15.098424,10.085709 0,0 Z"
         style="fill:#9e4a25;fill-opacity:1;fill-rule:nonzero;stroke:none"
         id="path912" />
    </g>
    <g
       transform="matrix(0.95221244,0,0,-0.95221244,366.9665,474.15744)"
       id="g914">
      <path
         inkscape:connector-curvature="0"
         d="M 0,0 C 4.2808217,5.4874623 10.900721,11.838972 -1.227,12.753 12.319585,21.618497 13.978733,-0.9685748 0,0 Z"
         style="fill:#e6e7e8;fill-opacity:1;fill-rule:nonzero;stroke:none"
         id="path916" />
    </g>
    <g
       transform="matrix(0.95221244,0,0,-0.95221244,347.53727,487.7478)"
       id="g918">
      <path
         inkscape:connector-curvature="0"
         d="M 0,0 C 17.905757,-3.885513 26.11735,21.194108 19.711129,31.499 9.2036127,31.474441 -4.8984205,35.044398 0,19.613902 0,13.075935 0,6.5379674 0,0 Z"
         style="fill:#e6e7e8;fill-opacity:1;fill-rule:nonzero;stroke:none"
         id="path920" />
    </g>
    <g
       transform="matrix(0.95221244,0,0,-0.95221244,347.53727,492.90223)"
       id="g922">
      <path
         inkscape:connector-curvature="0"
         d="M 0,0 C 7.4437163,-2.2279582 34.923203,2.1328401 19.089516,5.413 13.5551,3.3459101 -3.4179105,10.430893 0,0 Z"
         style="fill:#893d22;fill-opacity:1;fill-rule:nonzero;stroke:none"
         id="path924" />
    </g>
  </g>
  <g
     inkscape:groupmode="layer"
     id="layer2"
     inkscape:label="mac"
     style="display:inline"
     transform="translate(306.83414,-245.33147)">
    <path
       inkscape:connector-curvature="0"
       d="m 291.21591,490.06738 c -30.91142,1.80636 -63.16091,0.25773 -94.58686,0.774 -33.7499,-0.41604 -68.31725,0.82985 -101.55915,-0.619 -1.752756,-11.84606 16.61047,-3.59205 24.25108,-6.05218 57.24697,-0.0453 114.49395,-0.0906 171.74093,-0.13582 z"
       style="fill:#bcbec0"
       id="path4025" />
    <path
       inkscape:connector-curvature="0"
       d="m 172.8509,484.03738 c 14.41267,0 28.82534,0 43.23801,0 -6.44544,6.97124 -19.52113,1.50184 -28.66582,3.24909 -4.64299,-1.0655 -12.53985,2.7506 -14.57219,-3.24909 z"
       style="fill:#808285"
       id="path4027" />
    <path
       inkscape:connector-curvature="0"
       d="m 268.54591,387.72438 c 0,32.12833 0,64.25667 0,96.385 -50.227,0 -100.45401,0 -150.68101,0 0.32147,-32.90795 -0.64257,-65.94418 0.48122,-98.77206 10.16414,-5.88029 24.06995,-1.55881 35.86182,-2.88394 36.38785,0.0127 72.77679,-0.0254 109.16397,0.019 l 3.67337,1.66675 z"
       style="fill:#353c42"
       id="path4029" />
    <path
       inkscape:connector-curvature="0"
       d="m 290.39991,490.84138 c -24.37165,6.87351 -51.46274,1.05593 -76.8877,2.9286 -38.09982,-0.69716 -76.59544,1.24098 -114.44631,-1.1536 -4.933838,-3.79161 18.48518,-0.84246 25.5813,-1.774 55.25057,-6.7e-4 110.50381,0.001 165.75271,-10e-4 z"
       style="fill:#a7a9ac"
       id="path4033" />
    <path
       inkscape:connector-curvature="0"
       d="m 193.68389,386.81238 c -2.10114,3.60598 -2.52078,-3.43722 0,0 z"
       style="fill:#d1d3d4"
       id="circle4035" />
    <path
       inkscape:connector-curvature="0"
       d="m 125.53549,390.29218 c 44.643,0 89.286,0 133.929,0 0,29.04666 0,58.09333 0,87.13999 -44.643,0 -89.286,0 -133.929,0 0,-29.04666 0,-58.09333 0,-87.13999 z"
       style="fill:#58595b"
       id="rect3802" />
    <path
       inkscape:connector-curvature="0"
       d="m 129.91873,394.00452 c 7.67939,2.40998 26.08739,-5.90866 23.80115,6.46696 0,24.58244 0,49.16489 0,73.74734 -7.67939,-2.40998 -26.08739,5.90866 -23.80115,-6.46696 0,-24.58244 0,-49.16489 0,-73.74734 z"
       style="fill:#6d6e70"
       id="rect3804" />
    <path
       inkscape:connector-curvature="0"
       d="m 157.75519,394.00452 c 32.70316,0 65.40632,0 98.10948,0 0,26.7381 0,53.4762 0,80.2143 -32.70316,0 -65.40632,0 -98.10948,0 0,-26.7381 0,-53.4762 0,-80.2143 z"
       style="fill:#6d6e70"
       id="rect3806" />
    <path
       inkscape:connector-curvature="0"
       d="m 132.3092,398.58881 c 6.85419,-0.74138 29.7526,0.70862 11.40658,1.5623 -2.69011,-1.19957 -11.61791,2.32099 -11.40658,-1.5623 z"
       style="fill:#e5e6e6"
       id="rect3814" />
    <path
       inkscape:connector-curvature="0"
       d="m 162.89713,398.58881 c 11.44411,-1.80999 1.20865,5.2643 0,0 z"
       style="fill:#e5e6e6"
       id="rect3816" />
    <path
       inkscape:connector-curvature="0"
       d="m 159.3168,398.58881 c 4.17136,-0.60265 -0.85326,4.52161 0,0 z"
       style="fill:#e5e6e6"
       id="rect3818" />
    <path
       inkscape:connector-curvature="0"
       d="m 162.89713,402.27438 c 5.7875,-0.37444 32.09744,0.0659 16.11948,1.56119 -4.62818,-1.02647 -14.2025,2.0627 -16.11948,-1.56119 z"
       style="fill:#e5e6e6"
       id="rect3820" />
    <path
       inkscape:connector-curvature="0"
       d="m 159.3168,402.27438 c 4.17045,-0.60294 -0.85247,4.51942 0,0 z"
       style="fill:#e5e6e6"
       id="rect3822" />
    <path
       inkscape:connector-curvature="0"
       d="m 162.89713,405.9599 c 8.90557,-1.04479 27.73558,1.38473 8.65943,1.56119 -2.13118,-1.01726 -9.29697,2.07106 -8.65943,-1.56119 z"
       style="fill:#e5e6e6"
       id="rect3824" />
    <path
       inkscape:connector-curvature="0"
       d="m 159.3168,405.9599 c 4.17045,-0.60294 -0.85247,4.51942 0,0 z"
       style="fill:#e5e6e6"
       id="rect3826" />
    <path
       inkscape:connector-curvature="0"
       d="m 162.89713,409.64542 c 8.55238,1.16363 21.68479,-2.25278 27.58572,1.5623 -8.35129,-1.14093 -21.9697,2.21451 -27.58572,-1.5623 z"
       style="fill:#e5e6e6"
       id="rect3828" />
    <path
       inkscape:connector-curvature="0"
       d="m 159.3168,409.64542 c 4.17136,-0.60265 -0.85326,4.52161 0,0 z"
       style="fill:#e5e6e6"
       id="rect3830" />
    <path
       inkscape:connector-curvature="0"
       d="m 162.89713,413.33093 c 11.5688,0 23.1376,0 34.7064,0 -6.60179,3.61904 -19.90349,0.53817 -29.1013,1.56119 -1.50247,-0.74634 -6.66484,1.6632 -5.6051,-1.56119 z"
       style="fill:#e5e6e6"
       id="rect3832" />
    <path
       inkscape:connector-curvature="0"
       d="m 159.3168,413.33093 c 4.17045,-0.60294 -0.85247,4.51942 0,0 z"
       style="fill:#e5e6e6"
       id="rect3834" />
    <path
       inkscape:connector-curvature="0"
       d="m 159.3168,417.01755 c 4.17045,-0.60294 -0.85247,4.51942 0,0 z"
       style="fill:#e5e6e6"
       id="rect3836" />
    <path
       inkscape:connector-curvature="0"
       d="m 159.3168,420.70312 c 4.17137,-0.60264 -0.85327,4.52163 0,0 z"
       style="fill:#e5e6e6"
       id="rect3838" />
    <path
       inkscape:connector-curvature="0"
       d="m 162.89713,424.38864 c 14.46793,0 28.93587,0 43.4038,0 -6.59966,3.62154 -19.90378,0.53863 -29.1013,1.56231 -3.978,-1.04235 -13.06449,2.08965 -14.3025,-1.56231 z"
       style="fill:#e5e6e6"
       id="rect3840" />
    <path
       inkscape:connector-curvature="0"
       d="m 159.3168,424.38864 c 4.17137,-0.60264 -0.85327,4.52163 0,0 z"
       style="fill:#e5e6e6"
       id="rect3842" />
    <path
       inkscape:connector-curvature="0"
       d="m 162.89713,428.07526 c 10.04106,0 20.08213,0 30.12319,0 -6.60392,3.61654 -19.9032,0.53772 -29.1013,1.56007 h -1.02189 z"
       style="fill:#e5e6e6"
       id="rect3844" />
    <path
       inkscape:connector-curvature="0"
       d="m 159.3168,428.07526 c 4.16953,-0.60325 -0.85167,4.5172 0,0 z"
       style="fill:#e5e6e6"
       id="rect3846" />
    <path
       inkscape:connector-curvature="0"
       d="m 162.89713,431.75967 c 5.37008,0.0477 31.42571,-0.63399 19.1703,1.56231 -5.63708,-1.06122 -16.24508,2.1102 -19.1703,-1.56231 z"
       style="fill:#e5e6e6"
       id="rect3848" />
    <path
       inkscape:connector-curvature="0"
       d="m 159.3168,431.75967 c 4.17137,-0.60264 -0.85327,4.52163 0,0 z"
       style="fill:#e5e6e6"
       id="rect3850" />
    <path
       inkscape:connector-curvature="0"
       d="m 162.89713,435.44519 c 11.40417,0 22.80835,0 34.21252,0 -6.59966,3.62154 -19.90378,0.53863 -29.1013,1.56231 -1.3989,-0.77475 -6.27313,1.72156 -5.11122,-1.56231 z"
       style="fill:#e5e6e6"
       id="rect3852" />
    <path
       inkscape:connector-curvature="0"
       d="m 159.3168,435.44519 c 4.17137,-0.60264 -0.85327,4.52163 0,0 z"
       style="fill:#e5e6e6"
       id="rect3854" />
    <path
       inkscape:connector-curvature="0"
       d="m 162.89713,439.13187 c 8.93695,1.08126 22.17519,-2.13875 28.49458,1.56007 -8.77839,-1.07254 -22.40152,2.12094 -28.49458,-1.56007 z"
       style="fill:#e5e6e6"
       id="rect3856" />
    <path
       inkscape:connector-curvature="0"
       d="m 159.3168,439.13187 c 4.16953,-0.60325 -0.85167,4.5172 0,0 z"
       style="fill:#e5e6e6"
       id="rect3858" />
    <path
       inkscape:connector-curvature="0"
       d="m 162.89713,442.81625 c 19.07312,0 38.14624,0 57.21936,0 -6.59966,3.62154 -19.90378,0.53863 -29.1013,1.56231 -8.59797,-1.10641 -22.22983,2.168 -28.11806,-1.56231 z"
       style="fill:#e5e6e6"
       id="rect3860" />
    <path
       inkscape:connector-curvature="0"
       d="m 159.3168,442.81625 c 4.17137,-0.60264 -0.85327,4.52163 0,0 z"
       style="fill:#e5e6e6"
       id="rect3862" />
    <path
       inkscape:connector-curvature="0"
       d="m 162.89713,446.50177 c 16.19902,-2.0238 10.02625,5.03655 0,0 z"
       style="fill:#e5e6e6"
       id="rect3864" />
    <path
       inkscape:connector-curvature="0"
       d="m 159.3168,446.50177 c 4.17137,-0.60264 -0.85327,4.52163 0,0 z"
       style="fill:#e5e6e6"
       id="rect3866" />
    <path
       inkscape:connector-curvature="0"
       d="m 162.89713,450.18845 c 5.59975,-0.36229 31.39553,0.0301 15.23656,1.56119 -4.128,-1.15921 -13.91665,2.25468 -15.23656,-1.56119 z"
       style="fill:#e5e6e6"
       id="rect3868" />
    <path
       inkscape:connector-curvature="0"
       d="m 159.3168,450.18845 c 4.17045,-0.60294 -0.85247,4.51942 0,0 z"
       style="fill:#e5e6e6"
       id="rect3870" />
    <path
       inkscape:connector-curvature="0"
       d="m 162.89713,453.87396 c 4.89062,-0.83531 -0.79946,4.83539 0,0 z"
       style="fill:#e5e6e6"
       id="rect3872" />
    <path
       inkscape:connector-curvature="0"
       d="m 159.3168,453.87396 c 4.17137,-0.60264 -0.85327,4.52163 0,0 z"
       style="fill:#e5e6e6"
       id="rect3874" />
    <path
       inkscape:connector-curvature="0"
       d="m 132.3092,402.27438 c 6.85335,-0.74079 29.75241,0.70801 11.40658,1.56119 -2.69022,-1.19918 -11.61597,2.31996 -11.40658,-1.56119 z"
       style="fill:#e5e6e6"
       id="rect3876" />
    <path
       inkscape:connector-curvature="0"
       d="m 132.3092,405.9599 c 6.85335,-0.74079 29.75241,0.70801 11.40658,1.56119 -2.69022,-1.19918 -11.61597,2.31996 -11.40658,-1.56119 z"
       style="fill:#e5e6e6"
       id="rect3878" />
    <path
       inkscape:connector-curvature="0"
       d="m 132.3092,409.64542 c 6.85419,-0.74138 29.7526,0.70862 11.40658,1.5623 -2.69011,-1.19957 -11.61791,2.32099 -11.40658,-1.5623 z"
       style="fill:#e5e6e6"
       id="rect3880" />
    <path
       inkscape:connector-curvature="0"
       d="m 132.3092,413.33093 c 6.85335,-0.74079 29.75241,0.70801 11.40658,1.56119 -2.69022,-1.19918 -11.61597,2.31996 -11.40658,-1.56119 z"
       style="fill:#e5e6e6"
       id="rect3882" />
    <path
       inkscape:connector-curvature="0"
       d="m 132.3092,417.01755 c 6.85335,-0.74079 29.75241,0.70801 11.40658,1.56119 -2.69022,-1.19918 -11.61597,2.31996 -11.40658,-1.56119 z"
       style="fill:#e5e6e6"
       id="rect3884" />
    <path
       inkscape:connector-curvature="0"
       d="m 132.3092,420.70312 c 6.8542,-0.74139 29.7526,0.70863 11.40658,1.56231 -2.69011,-1.19958 -11.61793,2.321 -11.40658,-1.56231 z"
       style="fill:#e5e6e6"
       id="rect3886" />
    <path
       inkscape:connector-curvature="0"
       d="m 132.3092,424.38864 c 6.8542,-0.74139 29.7526,0.70863 11.40658,1.56231 -2.69011,-1.19958 -11.61793,2.321 -11.40658,-1.56231 z"
       style="fill:#e5e6e6"
       id="rect3888" />
    <path
       inkscape:connector-curvature="0"
       d="m 132.3092,428.07526 c 6.8525,-0.7402 29.75222,0.70739 11.40658,1.56007 -2.69032,-1.19879 -11.614,2.31892 -11.40658,-1.56007 z"
       style="fill:#e5e6e6"
       id="rect3890" />
    <path
       inkscape:connector-curvature="0"
       d="m 132.3092,431.75967 c 6.8542,-0.74139 29.7526,0.70863 11.40658,1.56231 -2.69011,-1.19958 -11.61793,2.321 -11.40658,-1.56231 z"
       style="fill:#e5e6e6"
       id="rect3892" />
    <path
       inkscape:connector-curvature="0"
       d="m 132.3092,435.44519 c 6.8542,-0.74139 29.7526,0.70863 11.40658,1.56231 -2.69011,-1.19958 -11.61793,2.321 -11.40658,-1.56231 z"
       style="fill:#e5e6e6"
       id="rect3894" />
    <path
       inkscape:connector-curvature="0"
       d="m 132.3092,439.13187 c 6.8525,-0.7402 29.75222,0.70739 11.40658,1.56007 -2.69032,-1.19879 -11.614,2.31892 -11.40658,-1.56007 z"
       style="fill:#e5e6e6"
       id="rect3896" />
    <path
       inkscape:connector-curvature="0"
       d="m 132.3092,442.81625 c 6.8542,-0.74139 29.7526,0.70863 11.40658,1.56231 -2.69011,-1.19958 -11.61793,2.321 -11.40658,-1.56231 z"
       style="fill:#e5e6e6"
       id="rect3898" />
    <path
       inkscape:connector-curvature="0"
       d="m 132.3092,446.50177 c 6.8542,-0.74139 29.7526,0.70863 11.40658,1.56231 -2.69011,-1.19958 -11.61793,2.321 -11.40658,-1.56231 z"
       style="fill:#e5e6e6"
       id="rect3900" />
    <path
       inkscape:connector-curvature="0"
       d="m 132.3092,450.18845 c 6.85335,-0.74079 29.75241,0.70801 11.40658,1.56119 -2.69022,-1.19918 -11.61597,2.31996 -11.40658,-1.56119 z"
       style="fill:#e5e6e6"
       id="rect3902" />
    <path
       inkscape:connector-curvature="0"
       d="m 132.3092,453.87396 c 6.8542,-0.74139 29.7526,0.70863 11.40658,1.56231 -2.69011,-1.19958 -11.61793,2.321 -11.40658,-1.56231 z"
       style="fill:#e5e6e6"
       id="rect3904" />
  </g>
</svg>
